<svg xmlns="http://www.w3.org/2000/svg" xmlns:xlink="http://www.w3.org/1999/xlink" width="192.8" height="50.4" viewBox="0 0 192.8 50.4"><path fill="#FFF" stroke="#DBDCDD" stroke-width=".357" d="M149.3 8.5c-.1.2-4.7 8.1-4.8 8.3.1.2 4.7 8.1 4.8 8.3h9.6c.1-.2 4.7-8.1 4.8-8.3-.1-.2-4.7-8.1-4.8-8.3h-9.6z"/><path fill="#FFF" stroke="#DBDCDD" stroke-width=".357" d="M149.4 8.7c-.5.9-4.2 7.2-4.7 8.1.5.9 4.2 7.2 4.7 8.1h9.4c.5-.9 4.2-7.2 4.7-8.1-.5-.9-4.2-7.2-4.7-8.1h-9.4z"/><defs><filter id="a" filterUnits="userSpaceOnUse" x="144.5" y="8.5" width="19.1" height="16.6"><feColorMatrix values="1 0 0 0 0 0 1 0 0 0 0 0 1 0 0 0 0 0 1 0"/></filter></defs><mask maskUnits="userSpaceOnUse" x="144.5" y="8.5" width="19.1" height="16.6" id="b"><image overflow="visible" width="18.8" height="16.2" xlink:href="87B4389599E87BFD.png" transform="translate(144.874 8.784)" filter="url(#a)"/></mask><path mask="url(#b)" fill="#FFF" stroke="#DBDCDD" stroke-width=".357" d="M149.4 8.7c-.5.9-4.2 7.2-4.7 8.1.5.9 4.2 7.2 4.7 8.1h9.4c.5-.9 4.2-7.2 4.7-8.1-.5-.9-4.2-7.2-4.7-8.1h-9.4z"/><path fill="#FFF" stroke="#DBDCDD" stroke-width=".357" d="M120.4 8.5c-.1.2-4.7 8.1-4.8 8.3.1.2 4.7 8.1 4.8 8.3h9.6c.1-.2 4.7-8.1 4.8-8.3-.1-.2-4.7-8.1-4.8-8.3h-9.6z"/><path fill="#FFF" stroke="#DBDCDD" stroke-width=".357" d="M120.6 8.7c-.5.9-4.2 7.2-4.7 8.1.5.9 4.2 7.2 4.7 8.1h9.4c.5-.9 4.2-7.2 4.7-8.1-.5-.9-4.2-7.2-4.7-8.1h-9.4z"/><defs><filter id="c" filterUnits="userSpaceOnUse" x="115.7" y="8.5" width="19.1" height="16.6"><feColorMatrix values="1 0 0 0 0 0 1 0 0 0 0 0 1 0 0 0 0 0 1 0"/></filter></defs><mask maskUnits="userSpaceOnUse" x="115.7" y="8.5" width="19.1" height="16.6" id="d"><image overflow="visible" width="18.8" height="16.2" xlink:href="87B4389599E87BFF.png" transform="translate(116.07 8.75)" filter="url(#c)"/></mask><path mask="url(#d)" fill="#FFF" stroke="#DBDCDD" stroke-width=".357" d="M120.6 8.7c-.5.9-4.2 7.2-4.7 8.1.5.9 4.2 7.2 4.7 8.1h9.4c.5-.9 4.2-7.2 4.7-8.1-.5-.9-4.2-7.2-4.7-8.1h-9.4z"/><path fill="#FFF" stroke="#DBDCDD" stroke-width=".357" d="M134.9 16.8c-.1.2-4.7 8.1-4.8 8.3.1.2 4.7 8.1 4.8 8.3h9.6c.1-.2 4.7-8.1 4.8-8.3-.1-.2-4.7-8.1-4.8-8.3h-9.6z"/><path fill="#FFF" stroke="#DBDCDD" stroke-width=".357" d="M135 17c-.5.9-4.2 7.2-4.7 8.1.5.9 4.2 7.2 4.7 8.1h9.4c.5-.9 4.2-7.2 4.7-8.1-.5-.9-4.2-7.2-4.7-8.1H135z"/><defs><filter id="e" filterUnits="userSpaceOnUse" x="130.1" y="16.9" width="19.1" height="16.6"><feColorMatrix values="1 0 0 0 0 0 1 0 0 0 0 0 1 0 0 0 0 0 1 0"/></filter></defs><mask maskUnits="userSpaceOnUse" x="130.1" y="16.9" width="19.1" height="16.6" id="f"><image overflow="visible" width="18.8" height="16.2" xlink:href="87B4389599E87BFA.png" transform="translate(130.528 17.118)" filter="url(#e)"/></mask><path mask="url(#f)" fill="#FFF" stroke="#DBDCDD" stroke-width=".357" d="M135 17c-.5.9-4.2 7.2-4.7 8.1.5.9 4.2 7.2 4.7 8.1h9.4c.5-.9 4.2-7.2 4.7-8.1-.5-.9-4.2-7.2-4.7-8.1H135z"/><path fill="#FFF" stroke="#DBDCDD" stroke-width=".357" d="M163.8 16.8c-.1.2-4.7 8.1-4.8 8.3.1.2 4.7 8.1 4.8 8.3h9.6c.1-.2 4.7-8.1 4.8-8.3-.1-.2-4.7-8.1-4.8-8.3h-9.6z"/><path fill="#FFF" stroke="#DBDCDD" stroke-width=".357" d="M163.9 17c-.5.9-4.2 7.2-4.7 8.1.5.9 4.2 7.2 4.7 8.1h9.4c.5-.9 4.2-7.2 4.7-8.1-.5-.9-4.2-7.2-4.7-8.1h-9.4z"/><defs><filter id="g" filterUnits="userSpaceOnUse" x="159" y="16.8" width="19.2" height="16.6"><feColorMatrix values="1 0 0 0 0 0 1 0 0 0 0 0 1 0 0 0 0 0 1 0"/></filter></defs><mask maskUnits="userSpaceOnUse" x="159" y="16.8" width="19.2" height="16.6" id="h"><image overflow="visible" width="18.7" height="16.2" xlink:href="87B4389599E87BFB.png" transform="translate(159.214 16.982)" filter="url(#g)"/></mask><path mask="url(#h)" fill="#FFF" stroke="#DBDCDD" stroke-width=".357" d="M163.9 17c-.5.9-4.2 7.2-4.7 8.1.5.9 4.2 7.2 4.7 8.1h9.4c.5-.9 4.2-7.2 4.7-8.1-.5-.9-4.2-7.2-4.7-8.1h-9.4z"/><path fill="#FFF" stroke="#DBDCDD" stroke-width=".357" d="M134.9 33.5c-.1.2-4.7 8.1-4.8 8.3.1.2 4.7 8.1 4.8 8.3h9.6c.1-.2 4.7-8.1 4.8-8.3-.1-.2-4.7-8.1-4.8-8.3h-9.6z"/><path fill="#FFF" stroke="#DBDCDD" stroke-width=".357" d="M135 33.7c-.5.9-4.2 7.2-4.7 8.1.5.9 4.2 7.2 4.7 8.1h9.4c.5-.9 4.2-7.2 4.7-8.1-.5-.9-4.2-7.2-4.7-8.1H135z"/><defs><filter id="i" filterUnits="userSpaceOnUse" x="130.1" y="33.5" width="19.2" height="16.6"><feColorMatrix values="1 0 0 0 0 0 1 0 0 0 0 0 1 0 0 0 0 0 1 0"/></filter></defs><mask maskUnits="userSpaceOnUse" x="130.1" y="33.5" width="19.2" height="16.6" id="j"><image overflow="visible" width="18.8" height="16.2" xlink:href="87B4389599E87C05.png" transform="translate(130.558 33.774)" filter="url(#i)"/></mask><path mask="url(#j)" fill="#FFF" stroke="#DBDCDD" stroke-width=".357" d="M135 33.7c-.5.9-4.2 7.2-4.7 8.1.5.9 4.2 7.2 4.7 8.1h9.4c.5-.9 4.2-7.2 4.7-8.1-.5-.9-4.2-7.2-4.7-8.1H135z"/><path fill="#FFF" stroke="#DBDCDD" stroke-width=".357" d="M120.4 25.2c-.1.2-4.7 8.1-4.8 8.3.1.2 4.7 8.1 4.8 8.3h9.6c.1-.2 4.7-8.1 4.8-8.3-.1-.2-4.7-8.1-4.8-8.3h-9.6z"/><path fill="#FFF" stroke="#DBDCDD" stroke-width=".357" d="M120.6 25.4c-.5.9-4.2 7.2-4.7 8.1.5.9 4.2 7.2 4.7 8.1h9.4c.5-.9 4.2-7.2 4.7-8.1-.5-.9-4.2-7.2-4.7-8.1h-9.4z"/><defs><filter id="k" filterUnits="userSpaceOnUse" x="115.7" y="25.2" width="19.1" height="16.6"><feColorMatrix values="1 0 0 0 0 0 1 0 0 0 0 0 1 0 0 0 0 0 1 0"/></filter></defs><mask maskUnits="userSpaceOnUse" x="115.7" y="25.2" width="19.1" height="16.6" id="l"><image overflow="visible" width="18.8" height="16.2" xlink:href="87B4389599E87C07.png" transform="translate(116.075 25.513)" filter="url(#k)"/></mask><path mask="url(#l)" fill="#FFF" stroke="#DBDCDD" stroke-width=".357" d="M120.6 25.4c-.5.9-4.2 7.2-4.7 8.1.5.9 4.2 7.2 4.7 8.1h9.4c.5-.9 4.2-7.2 4.7-8.1-.5-.9-4.2-7.2-4.7-8.1h-9.4z"/><g><path fill="#FFF" stroke="#DBDCDD" stroke-width=".357" d="M149.3 25.2c-.1.2-4.7 8.1-4.8 8.3.1.2 4.7 8.1 4.8 8.3h9.6c.1-.2 4.7-8.1 4.8-8.3-.1-.2-4.7-8.1-4.8-8.3h-9.6z"/><path fill="#FFF" stroke="#DBDCDD" stroke-width=".357" d="M149.4 25.4c-.5.9-4.2 7.2-4.7 8.1.5.9 4.2 7.2 4.7 8.1h9.4c.5-.9 4.2-7.2 4.7-8.1-.5-.9-4.2-7.2-4.7-8.1h-9.4z"/><defs><filter id="m" filterUnits="userSpaceOnUse" x="144.5" y="25.2" width="19.1" height="16.6"><feColorMatrix values="1 0 0 0 0 0 1 0 0 0 0 0 1 0 0 0 0 0 1 0"/></filter></defs><mask maskUnits="userSpaceOnUse" x="144.5" y="25.2" width="19.1" height="16.6" id="n"><image overflow="visible" width="18.8" height="16.2" xlink:href="87B4389599E87C0A.png" transform="translate(144.974 25.446)" filter="url(#m)"/></mask><path mask="url(#n)" fill="#FFF" stroke="#DBDCDD" stroke-width=".357" d="M149.4 25.4c-.5.9-4.2 7.2-4.7 8.1.5.9 4.2 7.2 4.7 8.1h9.4c.5-.9 4.2-7.2 4.7-8.1-.5-.9-4.2-7.2-4.7-8.1h-9.4z"/></g><g><path fill="#FFF" stroke="#DBDCDD" stroke-width=".357" d="M163.7 33.5c-.1.2-4.7 8.1-4.8 8.3.1.2 4.7 8.1 4.8 8.3h9.6c.1-.2 4.7-8.1 4.8-8.3-.1-.2-4.7-8.1-4.8-8.3h-9.6z"/><path fill="#FFF" stroke="#DBDCDD" stroke-width=".357" d="M163.9 33.7c-.5.9-4.2 7.2-4.7 8.1.5.9 4.2 7.2 4.7 8.1h9.4c.5-.9 4.2-7.2 4.7-8.1-.5-.9-4.2-7.2-4.7-8.1h-9.4z"/><defs><filter id="o" filterUnits="userSpaceOnUse" x="159" y="33.5" width="19.1" height="16.6"><feColorMatrix values="1 0 0 0 0 0 1 0 0 0 0 0 1 0 0 0 0 0 1 0"/></filter></defs><mask maskUnits="userSpaceOnUse" x="159" y="33.5" width="19.1" height="16.6" id="p"><image overflow="visible" width="18.8" height="16.2" xlink:href="87B4389599E87C0B.png" transform="translate(159.2 33.81)" filter="url(#o)"/></mask><path mask="url(#p)" fill="#FFF" stroke="#DBDCDD" stroke-width=".357" d="M163.9 33.7c-.5.9-4.2 7.2-4.7 8.1.5.9 4.2 7.2 4.7 8.1h9.4c.5-.9 4.2-7.2 4.7-8.1-.5-.9-4.2-7.2-4.7-8.1h-9.4z"/></g><g><path fill="#FFF" stroke="#DBDCDD" stroke-width=".357" d="M106 16.8c-.1.2-4.7 8.1-4.8 8.3.1.2 4.7 8.1 4.8 8.3h9.6c.1-.2 4.7-8.1 4.8-8.3-.1-.2-4.7-8.1-4.8-8.3H106z"/><path fill="#FFF" stroke="#DBDCDD" stroke-width=".357" d="M106.1 17.1c-.5.9-4.2 7.2-4.7 8.1.5.9 4.2 7.2 4.7 8.1h9.4c.5-.9 4.2-7.2 4.7-8.1-.5-.9-4.2-7.2-4.7-8.1h-9.4z"/><defs><filter id="q" filterUnits="userSpaceOnUse" x="101.3" y="16.9" width="19.1" height="16.6"><feColorMatrix values="1 0 0 0 0 0 1 0 0 0 0 0 1 0 0 0 0 0 1 0"/></filter></defs><mask maskUnits="userSpaceOnUse" x="101.3" y="16.9" width="19.1" height="16.6" id="r"><image overflow="visible" width="18.8" height="16.2" xlink:href="87B4389599E87C0D.png" transform="translate(101.528 17.09)" filter="url(#q)"/></mask><path mask="url(#r)" fill="#FFF" stroke="#DBDCDD" stroke-width=".357" d="M106.1 17.1c-.5.9-4.2 7.2-4.7 8.1.5.9 4.2 7.2 4.7 8.1h9.4c.5-.9 4.2-7.2 4.7-8.1-.5-.9-4.2-7.2-4.7-8.1h-9.4z"/></g><g><path fill="#FFF" stroke="#DBDCDD" stroke-width=".357" d="M106 33.5c-.1.2-4.7 8.1-4.8 8.3.1.2 4.7 8.1 4.8 8.3h9.6c.1-.2 4.7-8.1 4.8-8.3-.1-.2-4.7-8.1-4.8-8.3H106z"/><path fill="#FFF" stroke="#DBDCDD" stroke-width=".357" d="M106.1 33.7c-.5.9-4.2 7.2-4.7 8.1.5.9 4.2 7.2 4.7 8.1h9.4c.5-.9 4.2-7.2 4.7-8.1-.5-.9-4.2-7.2-4.7-8.1h-9.4z"/><defs><filter id="s" filterUnits="userSpaceOnUse" x="101.3" y="33.5" width="19.1" height="16.6"><feColorMatrix values="1 0 0 0 0 0 1 0 0 0 0 0 1 0 0 0 0 0 1 0"/></filter></defs><mask maskUnits="userSpaceOnUse" x="101.3" y="33.5" width="19.1" height="16.6" id="t"><image overflow="visible" width="18.7" height="16.2" xlink:href="9D0C2D9F3E99EB96.png" transform="translate(101.57 33.788)" filter="url(#s)"/></mask><path mask="url(#t)" fill="#FFF" stroke="#DBDCDD" stroke-width=".357" d="M106.1 33.7c-.5.9-4.2 7.2-4.7 8.1.5.9 4.2 7.2 4.7 8.1h9.4c.5-.9 4.2-7.2 4.7-8.1-.5-.9-4.2-7.2-4.7-8.1h-9.4z"/></g><g><path fill="#FFF" stroke="#DBDCDD" stroke-width=".357" d="M77.2.2c-.1.2-4.7 8.1-4.8 8.3.1.2 4.7 8.1 4.8 8.3h9.6c.1-.2 4.7-8.1 4.8-8.3-.1-.2-4.7-8.1-4.8-8.3h-9.6z"/><path fill="#FFF" stroke="#DBDCDD" stroke-width=".357" d="M77.3.4c-.5.9-4.2 7.2-4.7 8.1.5.9 4.2 7.2 4.7 8.1h9.4c.5-.9 4.2-7.2 4.7-8.1-.5-.9-4.2-7.2-4.7-8.1h-9.4z"/><defs><filter id="u" filterUnits="userSpaceOnUse" x="72.4" y=".2" width="19.1" height="16.6"><feColorMatrix values="1 0 0 0 0 0 1 0 0 0 0 0 1 0 0 0 0 0 1 0"/></filter></defs><mask maskUnits="userSpaceOnUse" x="72.4" y=".2" width="19.1" height="16.6" id="v"><image overflow="visible" width="18.7" height="16.2" xlink:href="9D0C2D9F3E99EB91.png" transform="translate(72.595 .398)" filter="url(#u)"/></mask><path mask="url(#v)" fill="#FFF" stroke="#DBDCDD" stroke-width=".357" d="M77.3.4c-.5.9-4.2 7.2-4.7 8.1.5.9 4.2 7.2 4.7 8.1h9.4c.5-.9 4.2-7.2 4.7-8.1-.5-.9-4.2-7.2-4.7-8.1h-9.4z"/></g><g><path fill="#FFF" stroke="#DBDCDD" stroke-width=".357" d="M48.3.2c-.1.2-4.7 8.1-4.8 8.3.1.2 4.7 8.1 4.8 8.3h9.6c.1-.2 4.7-8.1 4.8-8.3-.1-.2-4.7-8.1-4.8-8.3h-9.6z"/><path fill="#FFF" stroke="#DBDCDD" stroke-width=".357" d="M48.4.4c-.5.9-4.2 7.2-4.7 8.1.5.9 4.2 7.2 4.7 8.1h9.4c.5-.9 4.2-7.2 4.7-8.1-.5-.9-4.2-7.2-4.7-8.1h-9.4z"/><defs><filter id="w" filterUnits="userSpaceOnUse" x="43.5" y=".2" width="19.1" height="16.6"><feColorMatrix values="1 0 0 0 0 0 1 0 0 0 0 0 1 0 0 0 0 0 1 0"/></filter></defs><mask maskUnits="userSpaceOnUse" x="43.5" y=".2" width="19.1" height="16.6" id="x"><image overflow="visible" width="18.7" height="16.2" xlink:href="9D0C2D9F3E99EB92.png" transform="translate(43.74 .405)" filter="url(#w)"/></mask><path mask="url(#x)" fill="#FFF" stroke="#DBDCDD" stroke-width=".357" d="M48.4.4c-.5.9-4.2 7.2-4.7 8.1.5.9 4.2 7.2 4.7 8.1h9.4c.5-.9 4.2-7.2 4.7-8.1-.5-.9-4.2-7.2-4.7-8.1h-9.4z"/></g><g><path fill="#FFF" stroke="#DBDCDD" stroke-width=".357" d="M62.7 8.5c-.1.2-4.7 8.1-4.8 8.3.1.2 4.7 8.1 4.8 8.3h9.6c.1-.2 4.7-8.1 4.8-8.3-.1-.2-4.7-8.1-4.8-8.3h-9.6z"/><path fill="#FFF" stroke="#DBDCDD" stroke-width=".357" d="M62.9 8.7c-.5.9-4.2 7.2-4.7 8.1.5.9 4.2 7.2 4.7 8.1h9.4c.5-.9 4.2-7.2 4.7-8.1-.5-.9-4.2-7.2-4.7-8.1h-9.4z"/><defs><filter id="y" filterUnits="userSpaceOnUse" x="58" y="8.6" width="19.1" height="16.6"><feColorMatrix values="1 0 0 0 0 0 1 0 0 0 0 0 1 0 0 0 0 0 1 0"/></filter></defs><mask maskUnits="userSpaceOnUse" x="58" y="8.6" width="19.1" height="16.6" id="z"><image overflow="visible" width="18.8" height="16.2" xlink:href="9D0C2D9F3E99EB90.png" transform="translate(58.306 8.727)" filter="url(#y)"/></mask><path mask="url(#z)" fill="#FFF" stroke="#DBDCDD" stroke-width=".357" d="M62.9 8.7c-.5.9-4.2 7.2-4.7 8.1.5.9 4.2 7.2 4.7 8.1h9.4c.5-.9 4.2-7.2 4.7-8.1-.5-.9-4.2-7.2-4.7-8.1h-9.4z"/></g><g><path fill="#FFF" stroke="#DBDCDD" stroke-width=".357" d="M33.9 8.5c-.1.2-4.7 8.1-4.8 8.3.1.2 4.7 8.1 4.8 8.3h9.6c.1-.2 4.7-8.1 4.8-8.3-.1-.2-4.7-8.1-4.8-8.3h-9.6z"/><path fill="#FFF" stroke="#DBDCDD" stroke-width=".357" d="M34 8.7c-.5.9-4.2 7.2-4.7 8.1.5.9 4.2 7.2 4.7 8.1h9.4c.5-.9 4.2-7.2 4.7-8.1-.5-.9-4.2-7.2-4.7-8.1H34z"/><defs><filter id="A" filterUnits="userSpaceOnUse" x="29.1" y="8.6" width="19.1" height="16.6"><feColorMatrix values="1 0 0 0 0 0 1 0 0 0 0 0 1 0 0 0 0 0 1 0"/></filter></defs><mask maskUnits="userSpaceOnUse" x="29.1" y="8.6" width="19.1" height="16.6" id="B"><image overflow="visible" width="18.8" height="16.2" xlink:href="9D0C2D9F3E99EBAE.png" transform="translate(29.37 8.757)" filter="url(#A)"/></mask><path mask="url(#B)" fill="#FFF" stroke="#DBDCDD" stroke-width=".357" d="M34 8.7c-.5.9-4.2 7.2-4.7 8.1.5.9 4.2 7.2 4.7 8.1h9.4c.5-.9 4.2-7.2 4.7-8.1-.5-.9-4.2-7.2-4.7-8.1H34z"/></g><g><path fill="#FFF" stroke="#DBDCDD" stroke-width=".357" d="M48.3 16.9c-.1.2-4.7 8.1-4.8 8.3.1.2 4.7 8.1 4.8 8.3h9.6c.1-.2 4.7-8.1 4.8-8.3-.1-.2-4.7-8.1-4.8-8.3-.2-.1-9.4 0-9.6 0z"/><path fill="#FFF" stroke="#DBDCDD" stroke-width=".357" d="M48.4 17.1c-.5.9-4.2 7.2-4.7 8.1.5.9 4.2 7.2 4.7 8.1h9.4c.5-.9 4.2-7.2 4.7-8.1-.5-.9-4.2-7.2-4.7-8.1h-9.4z"/><defs><filter id="C" filterUnits="userSpaceOnUse" x="43.5" y="16.9" width="19.2" height="16.6"><feColorMatrix values="1 0 0 0 0 0 1 0 0 0 0 0 1 0 0 0 0 0 1 0"/></filter></defs><mask maskUnits="userSpaceOnUse" x="43.5" y="16.9" width="19.2" height="16.6" id="D"><image overflow="visible" width="18.8" height="16.2" xlink:href="9D0C2D9F3E99EBB1.png" transform="translate(43.9 17.14)" filter="url(#C)"/></mask><path mask="url(#D)" fill="#FFF" stroke="#DBDCDD" stroke-width=".357" d="M48.4 17.1c-.5.9-4.2 7.2-4.7 8.1.5.9 4.2 7.2 4.7 8.1h9.4c.5-.9 4.2-7.2 4.7-8.1-.5-.9-4.2-7.2-4.7-8.1h-9.4z"/></g><g><path fill="#FFF" stroke="#DBDCDD" stroke-width=".357" d="M77.2 16.8c-.1.2-4.7 8.1-4.8 8.3.1.2 4.7 8.1 4.8 8.3h9.6c.1-.2 4.7-8.1 4.8-8.3-.1-.2-4.7-8.1-4.8-8.3h-9.6z"/><path fill="#FFF" stroke="#DBDCDD" stroke-width=".357" d="M77.3 17.1c-.5.9-4.2 7.2-4.7 8.1.5.9 4.2 7.2 4.7 8.1h9.4c.5-.9 4.2-7.2 4.7-8.1-.5-.9-4.2-7.2-4.7-8.1h-9.4z"/><defs><filter id="E" filterUnits="userSpaceOnUse" x="72.4" y="16.9" width="19.1" height="16.6"><feColorMatrix values="1 0 0 0 0 0 1 0 0 0 0 0 1 0 0 0 0 0 1 0"/></filter></defs><mask maskUnits="userSpaceOnUse" x="72.4" y="16.9" width="19.1" height="16.6" id="F"><image overflow="visible" width="18.8" height="16.2" xlink:href="9D0C2D9F3E99EBB2.png" transform="translate(72.677 17.092)" filter="url(#E)"/></mask><path mask="url(#F)" fill="#FFF" stroke="#DBDCDD" stroke-width=".357" d="M77.3 17.1c-.5.9-4.2 7.2-4.7 8.1.5.9 4.2 7.2 4.7 8.1h9.4c.5-.9 4.2-7.2 4.7-8.1-.5-.9-4.2-7.2-4.7-8.1h-9.4z"/></g><g><path fill="#FFF" stroke="#DBDCDD" stroke-width=".357" d="M91.6 8.5c-.1.2-4.7 8.1-4.8 8.3.1.2 4.7 8.1 4.8 8.3h9.6c.1-.2 4.7-8.1 4.8-8.3-.1-.2-4.7-8.1-4.8-8.3h-9.6z"/><path fill="#FFF" stroke="#DBDCDD" stroke-width=".357" d="M91.7 8.7c-.5.9-4.2 7.2-4.7 8.1.5.9 4.2 7.2 4.7 8.1h9.4c.5-.9 4.2-7.2 4.7-8.1-.5-.9-4.2-7.2-4.7-8.1h-9.4z"/><defs><filter id="G" filterUnits="userSpaceOnUse" x="86.8" y="8.5" width="19.1" height="16.6"><feColorMatrix values="1 0 0 0 0 0 1 0 0 0 0 0 1 0 0 0 0 0 1 0"/></filter></defs><mask maskUnits="userSpaceOnUse" x="86.8" y="8.5" width="19.1" height="16.6" id="H"><image overflow="visible" width="18.8" height="16.2" xlink:href="9D0C2D9F3E99EBB0.png" transform="translate(87.15 8.744)" filter="url(#G)"/></mask><path mask="url(#H)" fill="#FFF" stroke="#DBDCDD" stroke-width=".357" d="M91.7 8.7c-.5.9-4.2 7.2-4.7 8.1.5.9 4.2 7.2 4.7 8.1h9.4c.5-.9 4.2-7.2 4.7-8.1-.5-.9-4.2-7.2-4.7-8.1h-9.4z"/></g><g><path fill="#FFF" stroke="#DBDCDD" stroke-width=".357" d="M48.3 33.5c-.1.2-4.7 8.1-4.8 8.3.1.2 4.7 8.1 4.8 8.3h9.6c.1-.2 4.7-8.1 4.8-8.3-.1-.2-4.7-8.1-4.8-8.3h-9.6z"/><path fill="#FFF" stroke="#DBDCDD" stroke-width=".357" d="M48.4 33.7c-.5.9-4.2 7.2-4.7 8.1.5.9 4.2 7.2 4.7 8.1h9.4c.5-.9 4.2-7.2 4.7-8.1-.5-.9-4.2-7.2-4.7-8.1h-9.4z"/><defs><filter id="I" filterUnits="userSpaceOnUse" x="43.5" y="33.5" width="19.1" height="16.6"><feColorMatrix values="1 0 0 0 0 0 1 0 0 0 0 0 1 0 0 0 0 0 1 0"/></filter></defs><mask maskUnits="userSpaceOnUse" x="43.5" y="33.5" width="19.1" height="16.6" id="J"><image overflow="visible" width="18.8" height="16.2" xlink:href="9D0C2D9F3E99EBB6.png" transform="translate(43.85 33.784)" filter="url(#I)"/></mask><path mask="url(#J)" fill="#FFF" stroke="#DBDCDD" stroke-width=".357" d="M48.4 33.7c-.5.9-4.2 7.2-4.7 8.1.5.9 4.2 7.2 4.7 8.1h9.4c.5-.9 4.2-7.2 4.7-8.1-.5-.9-4.2-7.2-4.7-8.1h-9.4z"/></g><g><path fill="#FFF" stroke="#DBDCDD" stroke-width=".357" d="M33.9 25.2c-.1.2-4.7 8.1-4.8 8.3.1.2 4.7 8.1 4.8 8.3h9.6c.1-.2 4.7-8.1 4.8-8.3-.1-.2-4.7-8.1-4.8-8.3h-9.6z"/><path fill="#FFF" stroke="#DBDCDD" stroke-width=".357" d="M34 25.4c-.5.9-4.2 7.2-4.7 8.1.5.9 4.2 7.2 4.7 8.1h9.4c.5-.9 4.2-7.2 4.7-8.1-.5-.9-4.2-7.2-4.7-8.1H34z"/><defs><filter id="K" filterUnits="userSpaceOnUse" x="29.1" y="25.2" width="19.1" height="16.6"><feColorMatrix values="1 0 0 0 0 0 1 0 0 0 0 0 1 0 0 0 0 0 1 0"/></filter></defs><mask maskUnits="userSpaceOnUse" x="29.1" y="25.2" width="19.1" height="16.6" id="L"><image overflow="visible" width="18.8" height="16.2" xlink:href="9D0C2D9F3E99EBB3.png" transform="translate(29.45 25.476)" filter="url(#K)"/></mask><path mask="url(#L)" fill="#FFF" stroke="#DBDCDD" stroke-width=".357" d="M34 25.4c-.5.9-4.2 7.2-4.7 8.1.5.9 4.2 7.2 4.7 8.1h9.4c.5-.9 4.2-7.2 4.7-8.1-.5-.9-4.2-7.2-4.7-8.1H34z"/></g><g><path fill="#FFF" stroke="#DBDCDD" stroke-width=".357" d="M62.7 25.2c-.1.2-4.7 8.1-4.8 8.3.1.2 4.7 8.1 4.8 8.3h9.6c.1-.2 4.7-8.1 4.8-8.3-.1-.2-4.7-8.1-4.8-8.3h-9.6z"/><path fill="#FFF" stroke="#DBDCDD" stroke-width=".357" d="M62.9 25.4c-.5.9-4.2 7.2-4.7 8.1.5.9 4.2 7.2 4.7 8.1h9.4c.5-.9 4.2-7.2 4.7-8.1-.5-.9-4.2-7.2-4.7-8.1h-9.4z"/><defs><filter id="M" filterUnits="userSpaceOnUse" x="58" y="25.2" width="19.1" height="16.6"><feColorMatrix values="1 0 0 0 0 0 1 0 0 0 0 0 1 0 0 0 0 0 1 0"/></filter></defs><mask maskUnits="userSpaceOnUse" x="58" y="25.2" width="19.1" height="16.6" id="N"><image overflow="visible" width="18.8" height="16.2" xlink:href="9D0C2D9F3E99EBD5.png" transform="translate(58.315 25.427)" filter="url(#M)"/></mask><path mask="url(#N)" fill="#FFF" stroke="#DBDCDD" stroke-width=".357" d="M62.9 25.4c-.5.9-4.2 7.2-4.7 8.1.5.9 4.2 7.2 4.7 8.1h9.4c.5-.9 4.2-7.2 4.7-8.1-.5-.9-4.2-7.2-4.7-8.1h-9.4z"/></g><g><path fill="#FFF" stroke="#DBDCDD" stroke-width=".357" d="M77.2 33.5c-.1.2-4.7 8.1-4.8 8.3.1.2 4.7 8.1 4.8 8.3h9.6c.1-.2 4.7-8.1 4.8-8.3-.1-.2-4.7-8.1-4.8-8.3h-9.6z"/><path fill="#FFF" stroke="#DBDCDD" stroke-width=".357" d="M77.3 33.7c-.5.9-4.2 7.2-4.7 8.1.5.9 4.2 7.2 4.7 8.1h9.4c.5-.9 4.2-7.2 4.7-8.1-.5-.9-4.2-7.2-4.7-8.1h-9.4z"/><defs><filter id="O" filterUnits="userSpaceOnUse" x="72.4" y="33.5" width="19.1" height="16.6"><feColorMatrix values="1 0 0 0 0 0 1 0 0 0 0 0 1 0 0 0 0 0 1 0"/></filter></defs><mask maskUnits="userSpaceOnUse" x="72.4" y="33.5" width="19.1" height="16.6" id="P"><image overflow="visible" width="18.8" height="16.2" xlink:href="9D0C2D9F3E99EBD7.png" transform="translate(72.8 33.827)" filter="url(#O)"/></mask><path mask="url(#P)" fill="#FFF" stroke="#DBDCDD" stroke-width=".357" d="M77.3 33.7c-.5.9-4.2 7.2-4.7 8.1.5.9 4.2 7.2 4.7 8.1h9.4c.5-.9 4.2-7.2 4.7-8.1-.5-.9-4.2-7.2-4.7-8.1h-9.4z"/></g><g><path fill="#FFF" stroke="#DBDCDD" stroke-width=".357" d="M91.6 25.2c-.1.2-4.7 8.1-4.8 8.3.1.2 4.7 8.1 4.8 8.3h9.6c.1-.2 4.7-8.1 4.8-8.3-.1-.2-4.7-8.1-4.8-8.3h-9.6z"/><path fill="#FFF" stroke="#DBDCDD" stroke-width=".357" d="M91.7 25.4c-.5.9-4.2 7.2-4.7 8.1.5.9 4.2 7.2 4.7 8.1h9.4c.5-.9 4.2-7.2 4.7-8.1-.5-.9-4.2-7.2-4.7-8.1h-9.4z"/><defs><filter id="Q" filterUnits="userSpaceOnUse" x="86.8" y="25.2" width="19.1" height="16.6"><feColorMatrix values="1 0 0 0 0 0 1 0 0 0 0 0 1 0 0 0 0 0 1 0"/></filter></defs><mask maskUnits="userSpaceOnUse" x="86.8" y="25.2" width="19.1" height="16.6" id="R"><image overflow="visible" width="18.8" height="16.2" xlink:href="9D0C2D9F3E99EBD4.png" transform="translate(87.302 25.458)" filter="url(#Q)"/></mask><path mask="url(#R)" fill="#FFF" stroke="#DBDCDD" stroke-width=".357" d="M91.7 25.4c-.5.9-4.2 7.2-4.7 8.1.5.9 4.2 7.2 4.7 8.1h9.4c.5-.9 4.2-7.2 4.7-8.1-.5-.9-4.2-7.2-4.7-8.1h-9.4z"/></g><g><path fill="#FFF" stroke="#DBDCDD" stroke-width=".357" d="M19.4.2c-.1.2-4.7 8.1-4.8 8.3.1.2 4.7 8.1 4.8 8.3H29c.1-.2 4.7-8.1 4.8-8.3-.1-.2-4.7-8.1-4.8-8.3h-9.6z"/><path fill="#FFF" stroke="#DBDCDD" stroke-width=".357" d="M19.6.4c-.5.9-4.2 7.2-4.7 8.1.5.9 4.2 7.2 4.7 8.1H29c.5-.9 4.2-7.2 4.7-8.1-.5-.9-4.2-7.2-4.7-8.1h-9.4z"/><defs><filter id="S" filterUnits="userSpaceOnUse" x="14.7" y=".2" width="19.1" height="16.6"><feColorMatrix values="1 0 0 0 0 0 1 0 0 0 0 0 1 0 0 0 0 0 1 0"/></filter></defs><mask maskUnits="userSpaceOnUse" x="14.7" y=".2" width="19.1" height="16.6" id="T"><image overflow="visible" width="18.7" height="16.2" xlink:href="9D0C2D9F3E99EBD3.png" transform="translate(14.884 .412)" filter="url(#S)"/></mask><path mask="url(#T)" fill="#FFF" stroke="#DBDCDD" stroke-width=".357" d="M19.6.4c-.5.9-4.2 7.2-4.7 8.1.5.9 4.2 7.2 4.7 8.1H29c.5-.9 4.2-7.2 4.7-8.1-.5-.9-4.2-7.2-4.7-8.1h-9.4z"/></g><g><path fill="#FFF" stroke="#DBDCDD" stroke-width=".357" d="M19.4 16.9c-.1.2-4.7 8.1-4.8 8.3.1.2 4.7 8.1 4.8 8.3H29c.1-.2 4.7-8.1 4.8-8.3-.1-.2-4.7-8.1-4.8-8.3h-9.6z"/><path fill="#FFF" stroke="#DBDCDD" stroke-width=".357" d="M19.6 17.1c-.5.9-4.2 7.2-4.7 8.1.5.9 4.2 7.2 4.7 8.1H29c.5-.9 4.2-7.2 4.7-8.1-.5-.9-4.2-7.2-4.7-8.1h-9.4z"/><defs><filter id="U" filterUnits="userSpaceOnUse" x="14.7" y="16.9" width="19.1" height="16.6"><feColorMatrix values="1 0 0 0 0 0 1 0 0 0 0 0 1 0 0 0 0 0 1 0"/></filter></defs><mask maskUnits="userSpaceOnUse" x="14.7" y="16.9" width="19.1" height="16.6" id="V"><image overflow="visible" width="18.8" height="16.2" xlink:href="9D0C2D9F3E99EBDD.png" transform="translate(15.034 17.13)" filter="url(#U)"/></mask><path mask="url(#V)" fill="#FFF" stroke="#DBDCDD" stroke-width=".357" d="M19.6 17.1c-.5.9-4.2 7.2-4.7 8.1.5.9 4.2 7.2 4.7 8.1H29c.5-.9 4.2-7.2 4.7-8.1-.5-.9-4.2-7.2-4.7-8.1h-9.4z"/></g><g><path fill="#FFF" stroke="#DBDCDD" stroke-width=".357" d="M19.4 33.5c-.1.2-4.7 8.1-4.8 8.3.1.2 4.7 8.1 4.8 8.3H29c.1-.2 4.7-8.1 4.8-8.3-.1-.2-4.7-8.1-4.8-8.3h-9.6z"/><path fill="#FFF" stroke="#DBDCDD" stroke-width=".357" d="M19.6 33.7c-.5.9-4.2 7.2-4.7 8.1.5.9 4.2 7.2 4.7 8.1H29c.5-.9 4.2-7.2 4.7-8.1-.5-.9-4.2-7.2-4.7-8.1h-9.4z"/><defs><filter id="W" filterUnits="userSpaceOnUse" x="14.7" y="33.6" width="19.1" height="16.6"><feColorMatrix values="1 0 0 0 0 0 1 0 0 0 0 0 1 0 0 0 0 0 1 0"/></filter></defs><mask maskUnits="userSpaceOnUse" x="14.7" y="33.6" width="19.1" height="16.6" id="X"><image overflow="visible" width="18.8" height="16.2" xlink:href="9D0C2D9F3E99EBDF.png" transform="translate(14.888 33.813)" filter="url(#W)"/></mask><path mask="url(#X)" fill="#FFF" stroke="#DBDCDD" stroke-width=".357" d="M19.6 33.7c-.5.9-4.2 7.2-4.7 8.1.5.9 4.2 7.2 4.7 8.1H29c.5-.9 4.2-7.2 4.7-8.1-.5-.9-4.2-7.2-4.7-8.1h-9.4z"/></g><g><path fill="#FFF" stroke="#DBDCDD" stroke-width=".357" d="M5 8.5c-.1.2-4.7 8.1-4.8 8.3.1.3 4.7 8.2 4.8 8.4h9.6c.1-.2 4.7-8.1 4.8-8.3-.1-.2-4.7-8.1-4.8-8.3-.2-.1-9.3-.1-9.6-.1z"/><path fill="#FFF" stroke="#DBDCDD" stroke-width=".357" d="M5.1 8.8C4.6 9.7 1 16 .5 16.9c.5.9 4.1 7.2 4.6 8.1h9.4c.5-.9 4.2-7.2 4.7-8.1-.5-.9-4.2-7.2-4.7-8.2-1 0-8.3.1-9.4.1z"/><defs><filter id="Y" filterUnits="userSpaceOnUse" x=".2" y="8.6" width="19.1" height="16.6"><feColorMatrix values="1 0 0 0 0 0 1 0 0 0 0 0 1 0 0 0 0 0 1 0"/></filter></defs><mask maskUnits="userSpaceOnUse" x=".2" y="8.6" width="19.1" height="16.6" id="Z"><image overflow="visible" width="18.8" height="16.2" xlink:href="9D0C2D9F3E99EBDC.png" transform="translate(.53 8.784)" filter="url(#Y)"/></mask><path mask="url(#Z)" fill="#FFF" stroke="#DBDCDD" stroke-width=".357" d="M5.1 8.8C4.6 9.7 1 16 .5 16.9c.5.9 4.1 7.2 4.6 8.1h9.4c.5-.9 4.2-7.2 4.7-8.1-.5-.9-4.2-7.2-4.7-8.2-1 0-8.3.1-9.4.1z"/></g><g><path fill="#FFF" stroke="#DBDCDD" stroke-width=".357" d="M5 25.2c-.1.2-4.7 8.1-4.8 8.3.1.2 4.7 8.1 4.8 8.3h9.6c.1-.2 4.7-8.1 4.8-8.3-.1-.2-4.7-8.1-4.8-8.3H5z"/><path fill="#FFF" stroke="#DBDCDD" stroke-width=".357" d="M5.1 25.4c-.5.9-4.2 7.2-4.7 8.1.5.9 4.2 7.2 4.7 8.1h9.4c.5-.9 4.2-7.2 4.7-8.1-.5-.9-4.2-7.2-4.7-8.1H5.1z"/><defs><filter id="aa" filterUnits="userSpaceOnUse" x=".3" y="25.2" width="19.1" height="16.6"><feColorMatrix values="1 0 0 0 0 0 1 0 0 0 0 0 1 0 0 0 0 0 1 0"/></filter></defs><mask maskUnits="userSpaceOnUse" x=".3" y="25.2" width="19.1" height="16.6" id="ab"><image overflow="visible" width="18.8" height="16.2" xlink:href="9D0C2D9F3E99EBD6.png" transform="translate(.45 25.427)" filter="url(#aa)"/></mask><path mask="url(#ab)" fill="#FFF" stroke="#DBDCDD" stroke-width=".357" d="M5.1 25.4c-.5.9-4.2 7.2-4.7 8.1.5.9 4.2 7.2 4.7 8.1h9.4c.5-.9 4.2-7.2 4.7-8.1-.5-.9-4.2-7.2-4.7-8.1H5.1z"/></g><g><path fill="#FFF" stroke="#DBDCDD" stroke-width=".357" d="M178.2 8.4c-.1.2-4.7 8.1-4.8 8.3.1.2 4.7 8.1 4.8 8.3h9.6c.1-.2 4.7-8.1 4.8-8.3-.1-.2-4.7-8.1-4.8-8.3h-9.6z"/><path fill="#FFF" stroke="#DBDCDD" stroke-width=".357" d="M178.3 8.6c-.5.9-4.2 7.2-4.7 8.1.5.9 4.2 7.2 4.7 8.1h9.4c.5-.9 4.2-7.2 4.7-8.1-.5-.9-4.2-7.2-4.7-8.1h-9.4z"/><defs><filter id="ac" filterUnits="userSpaceOnUse" x="173.4" y="8.5" width="19.1" height="16.6"><feColorMatrix values="1 0 0 0 0 0 1 0 0 0 0 0 1 0 0 0 0 0 1 0"/></filter></defs><mask maskUnits="userSpaceOnUse" x="173.4" y="8.5" width="19.1" height="16.6" id="ad"><image overflow="visible" width="18.8" height="16.2" xlink:href="9D0C2D9F3E99EBE9.png" transform="translate(173.747 8.716)" filter="url(#ac)"/></mask><path mask="url(#ad)" fill="#FFF" stroke="#DBDCDD" stroke-width=".357" d="M178.3 8.6c-.5.9-4.2 7.2-4.7 8.1.5.9 4.2 7.2 4.7 8.1h9.4c.5-.9 4.2-7.2 4.7-8.1-.5-.9-4.2-7.2-4.7-8.1h-9.4z"/></g><g><path fill="#FFF" stroke="#DBDCDD" stroke-width=".357" d="M178.2 25.1c-.1.2-4.7 8.1-4.8 8.3.1.2 4.7 8.1 4.8 8.3h9.6c.1-.2 4.7-8.1 4.8-8.3-.1-.2-4.7-8.1-4.8-8.3h-9.6z"/><path fill="#FFF" stroke="#DBDCDD" stroke-width=".357" d="M178.3 25.3c-.5.9-4.2 7.2-4.7 8.1.5.9 4.2 7.2 4.7 8.1h9.4c.5-.9 4.2-7.2 4.7-8.1-.5-.9-4.2-7.2-4.7-8.1h-9.4z"/><defs><filter id="ae" filterUnits="userSpaceOnUse" x="173.4" y="25.1" width="19.1" height="16.6"><feColorMatrix values="1 0 0 0 0 0 1 0 0 0 0 0 1 0 0 0 0 0 1 0"/></filter></defs><mask maskUnits="userSpaceOnUse" x="173.4" y="25.1" width="19.1" height="16.6" id="af"><image overflow="visible" width="18.8" height="16.2" xlink:href="9D0C2D9F3E99EBEA.png" transform="translate(173.85 25.378)" filter="url(#ae)"/></mask><path mask="url(#af)" fill="#FFF" stroke="#DBDCDD" stroke-width=".357" d="M178.3 25.3c-.5.9-4.2 7.2-4.7 8.1.5.9 4.2 7.2 4.7 8.1h9.4c.5-.9 4.2-7.2 4.7-8.1-.5-.9-4.2-7.2-4.7-8.1h-9.4z"/></g><g><defs><path id="ag" d="M20.8 13.2l-6.9 11.9L20.8 37h13.7l6.9-11.9-6.9-11.9z"/></defs><clipPath id="ah"><use xlink:href="#ag" overflow="visible"/></clipPath><path clip-path="url(#ah)" fill="#4D4D4F" d="M29.4 37l12-7.6V37"/><path clip-path="url(#ah)" fill="#4D4D4F" d="M28.4 37l13-8.2v.6l-12 7.6"/><path clip-path="url(#ah)" fill="#4C4C4E" d="M27.4 37l14-8.9v.7l-13 8.2"/><path clip-path="url(#ah)" fill="#4B4B4D" d="M26.4 37l15-9.5v.6l-14 8.9"/><path clip-path="url(#ah)" fill="#4A4A4C" d="M25.4 37l16-10.1v.6l-15 9.5"/><path clip-path="url(#ah)" fill="#49484A" d="M24.4 37l17-10.8v.7L25.4 37"/><path clip-path="url(#ah)" fill="#484749" d="M23.4 37l18-11.4v.6L24.4 37"/><path clip-path="url(#ah)" fill="#474648" d="M22.4 37l19-12v.6L23.4 37"/><path clip-path="url(#ah)" fill="#464547" d="M21.4 37l20-12.7v.7l-19 12"/><path clip-path="url(#ah)" fill="#464547" d="M20.8 37l20.6-13v.3L21.4 37"/><path clip-path="url(#ah)" fill="#454446" d="M20.3 37l21.1-13.4v.4L20.8 37"/><path clip-path="url(#ah)" fill="#444345" d="M19.7 37l21.7-13.7v.3L20.3 37"/><path clip-path="url(#ah)" fill="#434244" d="M19.1 37l22.3-14.1v.4L19.7 37"/><path clip-path="url(#ah)" fill="#424143" d="M18.6 37l22.8-14.4v.3L19.1 37"/><path clip-path="url(#ah)" fill="#414042" d="M18.4 37l-.1-.2 23.1-14.6v.4L18.6 37"/><path clip-path="url(#ah)" fill="#403F41" d="M18.3 36.8l-.2-.2 23.3-14.7v.3"/><path clip-path="url(#ah)" fill="#403E40" d="M18.1 36.6l-.1-.3 23.4-14.8v.4"/><path clip-path="url(#ah)" fill="#3F3D3F" d="M18 36.3l-.2-.2 23.6-14.9v.3"/><path clip-path="url(#ah)" fill="#3E3C3E" d="M17.8 36.1l-.1-.3 23.7-15v.4"/><path clip-path="url(#ah)" fill="#3D3B3D" d="M17.7 35.8l-.2-.2 23.9-15.1v.3"/><path clip-path="url(#ah)" fill="#3C3A3C" d="M17.5 35.6l-.1-.3 23.9-15.1.1.1v.2"/><path transform="rotate(57 29.25 27.628)" clip-path="url(#ah)" fill="#3B393B" d="M29.1 13.5h.3v28.3h-.3z"/><path transform="rotate(58 29.09 27.377)" clip-path="url(#ah)" fill="#3A383A" d="M28.9 13.2h.3v28.3h-.3z"/><path transform="rotate(58 28.933 27.127)" clip-path="url(#ah)" fill="#393739" d="M28.8 13h.3v28.3h-.3z"/><path transform="rotate(57 28.776 26.876)" clip-path="url(#ah)" fill="#383638" d="M28.6 12.7h.3V41h-.3z"/><path transform="rotate(58 28.616 26.627)" clip-path="url(#ah)" fill="#373537" d="M28.5 12.5h.3v28.3h-.3z"/><path transform="rotate(58 28.46 26.377)" clip-path="url(#ah)" fill="#363436" d="M28.3 12.2h.3v28.3h-.3z"/><path transform="rotate(57 28.303 26.126)" clip-path="url(#ah)" fill="#353335" d="M28.2 12h.3v28.3h-.3z"/><path transform="rotate(58 28.143 25.877)" clip-path="url(#ah)" fill="#353234" d="M28 11.7h.3V40H28z"/><path transform="rotate(58 27.987 25.627)" clip-path="url(#ah)" fill="#343132" d="M27.8 11.5h.3v28.3h-.3z"/><path transform="rotate(57 27.83 25.376)" clip-path="url(#ah)" fill="#333031" d="M27.7 11.2h.3v28.3h-.3z"/><path transform="rotate(58 27.67 25.127)" clip-path="url(#ah)" fill="#322F30" d="M27.5 11h.3v28.3h-.3z"/><path transform="rotate(57 27.516 24.876)" clip-path="url(#ah)" fill="#312E2F" d="M27.4 10.7h.3V39h-.3z"/><path transform="rotate(58 27.354 24.63)" clip-path="url(#ah)" fill="#302D2E" d="M27.2 10.5h.3v28.3h-.3z"/><path transform="rotate(58 27.198 24.38)" clip-path="url(#ah)" fill="#2F2C2D" d="M27.1 10.2h.3v28.3h-.3z"/><path transform="rotate(57 27.04 24.128)" clip-path="url(#ah)" fill="#2E2B2C" d="M26.9 10h.3v28.3h-.3z"/><path transform="rotate(58 26.882 23.88)" clip-path="url(#ah)" fill="#2D2A2B" d="M26.7 9.7h.3V38h-.3z"/><path transform="rotate(58 26.726 23.63)" clip-path="url(#ah)" fill="#2C292A" d="M26.6 9.5h.3v28.3h-.3z"/><path transform="rotate(57 26.57 23.38)" clip-path="url(#ah)" fill="#2B2829" d="M26.4 9.2h.3v28.3h-.3z"/><path transform="rotate(58 26.41 23.13)" clip-path="url(#ah)" fill="#2A2728" d="M26.3 9h.3v28.3h-.3z"/><path transform="rotate(58 26.253 22.88)" clip-path="url(#ah)" fill="#292627" d="M26.1 8.7h.3V37h-.3z"/><path transform="rotate(57 26.096 22.63)" clip-path="url(#ah)" fill="#292526" d="M25.9 8.5h.3v28.3h-.3z"/><path clip-path="url(#ah)" fill="#282425" d="M14 30.1l-.1-.3 23.9-15.1.2.2"/><path clip-path="url(#ah)" fill="#272324" d="M13.9 29.5l23.8-15.1.1.3-23.9 15.1"/><path clip-path="url(#ah)" fill="#262223" d="M13.9 29.1l23.6-14.9.2.2-23.8 15.1"/><path clip-path="url(#ah)" fill="#252122" d="M13.9 28.8L37.4 14l.1.2-23.6 14.9"/><path clip-path="url(#ah)" fill="#242021" d="M13.9 28.4l23.3-14.7.2.3-23.5 14.8"/><path clip-path="url(#ah)" fill="#231F20" d="M13.9 28.1L37 13.5l.2.2-23.3 14.7"/><path clip-path="url(#ah)" fill="#231F20" d="M36.9 13.2l.1.3-23.1 14.6V13.2"/><g><defs><path id="ai" d="M21.8 35.2L16 25.1 21.8 15h11.7l5.8 10.1-5.8 10.1z"/></defs><clipPath id="aj"><use xlink:href="#ai" overflow="visible"/></clipPath><path clip-path="url(#aj)" fill="#231F20" d="M16 15h5.1v20.2H16zM21.1 15h.2v20.2h-.2z"/><path clip-path="url(#aj)" fill="#232021" d="M21.3 15h.2v20.2h-.2z"/><path clip-path="url(#aj)" fill="#222122" d="M21.4 15h.2v20.2h-.2z"/><path clip-path="url(#aj)" fill="#222123" d="M21.6 15h.2v20.2h-.2z"/><path clip-path="url(#aj)" fill="#222224" d="M21.7 15h.2v20.2h-.2z"/><path clip-path="url(#aj)" fill="#212325" d="M21.9 15h.2v20.2h-.2z"/><path clip-path="url(#aj)" fill="#212426" d="M22.1 15h.2v20.2h-.2z"/><path clip-path="url(#aj)" fill="#212427" d="M22.2 15h.2v20.2h-.2z"/><path clip-path="url(#aj)" fill="#202528" d="M22.4 15h.2v20.2h-.2z"/><path clip-path="url(#aj)" fill="#202629" d="M22.6 15h.2v20.2h-.2z"/><path clip-path="url(#aj)" fill="#20272A" d="M22.7 15h.2v20.2h-.2z"/><path clip-path="url(#aj)" fill="#20272B" d="M22.9 15h.2v20.2h-.2z"/><path clip-path="url(#aj)" fill="#1F282C" d="M23.1 15h.2v20.2h-.2z"/><path clip-path="url(#aj)" fill="#1F292D" d="M23.2 15h.2v20.2h-.2z"/><path clip-path="url(#aj)" fill="#1F2A2E" d="M23.4 15h.2v20.2h-.2z"/><path clip-path="url(#aj)" fill="#1E2A2F" d="M23.6 15h.2v20.2h-.2z"/><path clip-path="url(#aj)" fill="#1E2B30" d="M23.7 15h.2v20.2h-.2z"/><path clip-path="url(#aj)" fill="#1E2C31" d="M23.9 15h.2v20.2h-.2z"/><path clip-path="url(#aj)" fill="#1D2D32" d="M24 15h.2v20.2H24z"/><path clip-path="url(#aj)" fill="#1D2D33" d="M24.2 15h.2v20.2h-.2z"/><path clip-path="url(#aj)" fill="#1D2E34" d="M24.4 15h.2v20.2h-.2z"/><path clip-path="url(#aj)" fill="#1C2F35" d="M24.5 15h.2v20.2h-.2z"/><path clip-path="url(#aj)" fill="#1C3036" d="M24.7 15h.2v20.2h-.2z"/><path clip-path="url(#aj)" fill="#1C3037" d="M24.9 15h.2v20.2h-.2z"/><path clip-path="url(#aj)" fill="#1B3138" d="M25 15h.2v20.2H25z"/><path clip-path="url(#aj)" fill="#1B3239" d="M25.2 15h.2v20.2h-.2z"/><path clip-path="url(#aj)" fill="#1B333A" d="M25.4 15h.2v20.2h-.2z"/><path clip-path="url(#aj)" fill="#1A333B" d="M25.5 15h.2v20.2h-.2z"/><path clip-path="url(#aj)" fill="#1A343C" d="M25.7 15h.2v20.2h-.2z"/><path clip-path="url(#aj)" fill="#1A353D" d="M25.8 15h.2v20.2h-.2z"/><path clip-path="url(#aj)" fill="#19363E" d="M26 15h.2v20.2H26z"/><path clip-path="url(#aj)" fill="#19363F" d="M26.2 15h.2v20.2h-.2z"/><path clip-path="url(#aj)" fill="#193740" d="M26.3 15h.2v20.2h-.2z"/><path clip-path="url(#aj)" fill="#193841" d="M26.5 15h.2v20.2h-.2z"/><path clip-path="url(#aj)" fill="#183942" d="M26.7 15h.2v20.2h-.2z"/><path clip-path="url(#aj)" fill="#183943" d="M26.8 15h.2v20.2h-.2z"/><path clip-path="url(#aj)" fill="#183A44" d="M27 15h.2v20.2H27z"/><path clip-path="url(#aj)" fill="#173B45" d="M27.2 15h.2v20.2h-.2z"/><path clip-path="url(#aj)" fill="#173C46" d="M27.3 15h.2v20.2h-.2z"/><path clip-path="url(#aj)" fill="#173C47" d="M27.5 15h.2v20.2h-.2z"/><path clip-path="url(#aj)" fill="#163D48" d="M27.6 15h.2v20.2h-.2z"/><path clip-path="url(#aj)" fill="#163E49" d="M27.8 15h.2v20.2h-.2z"/><path clip-path="url(#aj)" fill="#163F4A" d="M28 15h.2v20.2H28z"/><path clip-path="url(#aj)" fill="#153F4B" d="M28.1 15h.2v20.2h-.2z"/><path clip-path="url(#aj)" fill="#15404C" d="M28.3 15h.2v20.2h-.2z"/><path clip-path="url(#aj)" fill="#15414D" d="M28.5 15h.2v20.2h-.2z"/><path clip-path="url(#aj)" fill="#14424E" d="M28.6 15h.2v20.2h-.2z"/><path clip-path="url(#aj)" fill="#14424F" d="M28.8 15h.2v20.2h-.2z"/><path clip-path="url(#aj)" fill="#144350" d="M29 15h.2v20.2H29z"/><path clip-path="url(#aj)" fill="#134451" d="M29.1 15h.2v20.2h-.2z"/><path clip-path="url(#aj)" fill="#134552" d="M29.3 15h.2v20.2h-.2z"/><path clip-path="url(#aj)" fill="#134553" d="M29.5 15h.2v20.2h-.2z"/><path clip-path="url(#aj)" fill="#124654" d="M29.6 15h.2v20.2h-.2z"/><path clip-path="url(#aj)" fill="#124755" d="M29.8 15h.2v20.2h-.2z"/><path clip-path="url(#aj)" fill="#124856" d="M29.9 15h.2v20.2h-.2z"/><path clip-path="url(#aj)" fill="#124958" d="M30.1 15h.2v20.2h-.2z"/><path clip-path="url(#aj)" fill="#114959" d="M30.3 15h.2v20.2h-.2z"/><path clip-path="url(#aj)" fill="#114A5A" d="M30.4 15h.2v20.2h-.2z"/><path clip-path="url(#aj)" fill="#114B5B" d="M30.6 15h.2v20.2h-.2z"/><path clip-path="url(#aj)" fill="#104C5C" d="M30.8 15h.2v20.2h-.2z"/><path clip-path="url(#aj)" fill="#104C5D" d="M30.9 15h.2v20.2h-.2z"/><path clip-path="url(#aj)" fill="#104D5E" d="M31.1 15h.2v20.2h-.2z"/><path clip-path="url(#aj)" fill="#0F4E5F" d="M31.3 15h.2v20.2h-.2z"/><path clip-path="url(#aj)" fill="#0F4F60" d="M31.4 15h.2v20.2h-.2z"/><path clip-path="url(#aj)" fill="#0F4F61" d="M31.6 15h.2v20.2h-.2z"/><path clip-path="url(#aj)" fill="#0E5062" d="M31.7 15h.2v20.2h-.2z"/><path clip-path="url(#aj)" fill="#0E5163" d="M31.9 15h.2v20.2h-.2z"/><path clip-path="url(#aj)" fill="#0E5264" d="M32.1 15h.2v20.2h-.2z"/><path clip-path="url(#aj)" fill="#0D5265" d="M32.2 15h.2v20.2h-.2z"/><path clip-path="url(#aj)" fill="#0D5366" d="M32.4 15h.2v20.2h-.2z"/><path clip-path="url(#aj)" fill="#0D5467" d="M32.6 15h.2v20.2h-.2z"/><path clip-path="url(#aj)" fill="#0C5568" d="M32.7 15h.2v20.2h-.2z"/><path clip-path="url(#aj)" fill="#0C5569" d="M32.9 15h.2v20.2h-.2z"/><path clip-path="url(#aj)" fill="#0C566A" d="M33.1 15h.2v20.2h-.2z"/><path clip-path="url(#aj)" fill="#0B576B" d="M33.2 15h.2v20.2h-.2z"/><path clip-path="url(#aj)" fill="#0B586C" d="M33.4 15h.2v20.2h-.2z"/><path clip-path="url(#aj)" fill="#0B586D" d="M33.6 15h.2v20.2h-.2z"/><path clip-path="url(#aj)" fill="#0B596E" d="M33.7 15h.2v20.2h-.2z"/><path clip-path="url(#aj)" fill="#0A5A6F" d="M33.9 15h.2v20.2h-.2z"/><path clip-path="url(#aj)" fill="#0A5B70" d="M34 15h.2v20.2H34z"/><path clip-path="url(#aj)" fill="#0A5B71" d="M34.2 15h.2v20.2h-.2z"/><path clip-path="url(#aj)" fill="#095C72" d="M34.4 15h.2v20.2h-.2z"/><path clip-path="url(#aj)" fill="#095D73" d="M34.5 15h.2v20.2h-.2z"/><path clip-path="url(#aj)" fill="#095E74" d="M34.7 15h.2v20.2h-.2z"/><path clip-path="url(#aj)" fill="#085E75" d="M34.9 15h.2v20.2h-.2z"/><path clip-path="url(#aj)" fill="#085F76" d="M35 15h.2v20.2H35z"/><path clip-path="url(#aj)" fill="#086077" d="M35.2 15h.2v20.2h-.2z"/><path clip-path="url(#aj)" fill="#076178" d="M35.4 15h.2v20.2h-.2z"/><path clip-path="url(#aj)" fill="#076179" d="M35.5 15h.2v20.2h-.2z"/><path clip-path="url(#aj)" fill="#07627A" d="M35.7 15h.2v20.2h-.2z"/><path clip-path="url(#aj)" fill="#06637B" d="M35.8 15h.2v20.2h-.2z"/><path clip-path="url(#aj)" fill="#06647C" d="M36 15h.2v20.2H36z"/><path clip-path="url(#aj)" fill="#06647D" d="M36.2 15h.2v20.2h-.2z"/><path clip-path="url(#aj)" fill="#05657E" d="M36.3 15h.2v20.2h-.2z"/><path clip-path="url(#aj)" fill="#05667F" d="M36.5 15h.2v20.2h-.2z"/><path clip-path="url(#aj)" fill="#056780" d="M36.7 15h.2v20.2h-.2z"/><path clip-path="url(#aj)" fill="#046781" d="M36.8 15h.2v20.2h-.2z"/><path clip-path="url(#aj)" fill="#046882" d="M37 15h.2v20.2H37z"/><path clip-path="url(#aj)" fill="#046983" d="M37.2 15h.2v20.2h-.2z"/><path clip-path="url(#aj)" fill="#046A84" d="M37.3 15h.2v20.2h-.2z"/><path clip-path="url(#aj)" fill="#036A85" d="M37.5 15h.2v20.2h-.2z"/><path clip-path="url(#aj)" fill="#036B86" d="M37.6 15h.2v20.2h-.2z"/><path clip-path="url(#aj)" fill="#036C87" d="M37.8 15h.2v20.2h-.2z"/><path clip-path="url(#aj)" fill="#026D88" d="M38 15h.2v20.2H38z"/><path clip-path="url(#aj)" fill="#026D89" d="M38.1 15h.2v20.2h-.2z"/><path clip-path="url(#aj)" fill="#026E8A" d="M38.3 15h.2v20.2h-.2z"/><path clip-path="url(#aj)" fill="#016F8B" d="M38.5 15h.2v20.2h-.2z"/><path clip-path="url(#aj)" fill="#01708C" d="M38.6 15h.2v20.2h-.2z"/><path clip-path="url(#aj)" fill="#01708D" d="M38.8 15h.2v20.2h-.2z"/><path clip-path="url(#aj)" fill="#00718E" d="M39 15h.2v20.2H39z"/><path clip-path="url(#aj)" fill="#00728F" d="M39.1 15h.2v20.2h-.2zM39.3 35.2V15v20.2z"/></g><g><defs><path id="ak" d="M21.8 35.3L16 25.1 21.8 15h11.7l5.9 10.1-5.9 10.2z"/></defs><clipPath id="al"><use xlink:href="#ak" overflow="visible"/></clipPath><path clip-path="url(#al)" fill="#231F20" d="M16 15h23.4v20.3H16z"/><path clip-path="url(#al)" fill="#231F20" d="M35 25.6c0 4.1-3.3 7.5-7.5 7.5S20 29.8 20 25.6c0-4.1 3.3-7.5 7.5-7.5s7.5 3.4 7.5 7.5z"/><circle clip-path="url(#al)" fill="#242021" cx="27.5" cy="25.6" r="7.4"/><path clip-path="url(#al)" fill="#252122" d="M34.9 25.6c0 4.1-3.3 7.4-7.4 7.4-4.1 0-7.4-3.3-7.4-7.4s3.3-7.4 7.4-7.4c4.1 0 7.4 3.3 7.4 7.4z"/><circle clip-path="url(#al)" fill="#262223" cx="27.5" cy="25.6" r="7.4"/><path clip-path="url(#al)" fill="#272324" d="M34.9 25.6c0 4.1-3.3 7.3-7.3 7.3-4.1 0-7.3-3.3-7.3-7.3s3.3-7.3 7.3-7.3 7.3 3.3 7.3 7.3z"/><path clip-path="url(#al)" fill="#282425" d="M34.8 25.6c0 4-3.3 7.3-7.3 7.3s-7.3-3.3-7.3-7.3 3.3-7.3 7.3-7.3c4.1 0 7.3 3.3 7.3 7.3z"/><circle clip-path="url(#al)" fill="#292526" cx="27.5" cy="25.6" r="7.3"/><path clip-path="url(#al)" fill="#2A2627" d="M34.8 25.6c0 4-3.2 7.2-7.2 7.2s-7.2-3.2-7.2-7.2 3.2-7.2 7.2-7.2c3.9 0 7.2 3.2 7.2 7.2z"/><circle clip-path="url(#al)" fill="#2B2728" cx="27.5" cy="25.6" r="7.2"/><path clip-path="url(#al)" fill="#2C2829" d="M34.7 25.6c0 4-3.2 7.2-7.2 7.2s-7.2-3.2-7.2-7.2 3.2-7.2 7.2-7.2 7.2 3.3 7.2 7.2z"/><circle clip-path="url(#al)" fill="#2D292A" cx="27.5" cy="25.6" r="7.1"/><path clip-path="url(#al)" fill="#2E2A2B" d="M34.6 25.6c0 3.9-3.2 7.1-7.1 7.1-3.9 0-7.1-3.2-7.1-7.1 0-3.9 3.2-7.1 7.1-7.1 4 0 7.1 3.2 7.1 7.1z"/><circle clip-path="url(#al)" fill="#2F2B2C" cx="27.5" cy="25.6" r="7.1"/><path clip-path="url(#al)" fill="#302C2D" d="M34.6 25.6c0 3.9-3.2 7-7 7-3.9 0-7-3.1-7-7s3.2-7 7-7 7 3.1 7 7z"/><path clip-path="url(#al)" fill="#312D2E" d="M34.5 25.6c0 3.9-3.1 7-7 7s-7-3.1-7-7 3.1-7 7-7 7 3.1 7 7z"/><path clip-path="url(#al)" fill="#322E2F" d="M34.5 25.6c0 3.9-3.1 7-7 7-3.8 0-7-3.1-7-7 0-3.8 3.1-7 7-7s7 3.2 7 7z"/><path clip-path="url(#al)" fill="#332F30" d="M34.5 25.6c0 3.8-3.1 6.9-6.9 6.9-3.8 0-6.9-3.1-6.9-6.9s3.1-6.9 6.9-6.9c3.8 0 6.9 3.1 6.9 6.9z"/><circle clip-path="url(#al)" fill="#343031" cx="27.5" cy="25.6" r="6.9"/><path clip-path="url(#al)" fill="#353132" d="M34.4 25.6c0 3.8-3.1 6.9-6.9 6.9-3.8 0-6.9-3.1-6.9-6.9s3.1-6.9 6.9-6.9c3.8 0 6.9 3.1 6.9 6.9z"/><path clip-path="url(#al)" fill="#363233" d="M34.4 25.6c0 3.8-3.1 6.8-6.8 6.8-3.8 0-6.8-3.1-6.8-6.8 0-3.8 3.1-6.8 6.8-6.8 3.7 0 6.8 3 6.8 6.8z"/><path clip-path="url(#al)" fill="#373334" d="M34.3 25.6c0 3.8-3 6.8-6.8 6.8s-6.8-3-6.8-6.8 3-6.8 6.8-6.8 6.8 3.1 6.8 6.8z"/><circle clip-path="url(#al)" fill="#383435" cx="27.5" cy="25.6" r="6.8"/><path clip-path="url(#al)" fill="#393536" d="M34.3 25.6c0 3.7-3 6.7-6.7 6.7s-6.7-3-6.7-6.7 3-6.7 6.7-6.7c3.6 0 6.7 3 6.7 6.7z"/><path clip-path="url(#al)" fill="#3A3637" d="M34.2 25.6c0 3.7-3 6.7-6.7 6.7s-6.7-3-6.7-6.7 3-6.7 6.7-6.7 6.7 3 6.7 6.7z"/><path clip-path="url(#al)" fill="#3B3738" d="M34.2 25.6c0 3.7-3 6.7-6.7 6.7s-6.7-3-6.7-6.7 3-6.7 6.7-6.7 6.7 3 6.7 6.7z"/><path clip-path="url(#al)" fill="#3C3839" d="M34.2 25.6c0 3.7-3 6.6-6.6 6.6-3.7 0-6.6-3-6.6-6.6 0-3.7 3-6.6 6.6-6.6 3.6 0 6.6 2.9 6.6 6.6z"/><path clip-path="url(#al)" fill="#3D393A" d="M34.1 25.6c0 3.6-3 6.6-6.6 6.6-3.6 0-6.6-3-6.6-6.6 0-3.6 3-6.6 6.6-6.6 3.7 0 6.6 3 6.6 6.6z"/><path clip-path="url(#al)" fill="#3E3A3B" d="M34.1 25.6c0 3.6-2.9 6.6-6.6 6.6-3.6 0-6.6-2.9-6.6-6.6s2.9-6.6 6.6-6.6c3.7 0 6.6 3 6.6 6.6z"/><path clip-path="url(#al)" fill="#3F3B3C" d="M34.1 25.6c0 3.6-2.9 6.5-6.5 6.5S21 29.2 21 25.6s2.9-6.5 6.5-6.5 6.6 2.9 6.6 6.5z"/><path clip-path="url(#al)" fill="#403C3D" d="M34 25.6c0 3.6-2.9 6.5-6.5 6.5S21 29.2 21 25.6s2.9-6.5 6.5-6.5S34 22 34 25.6z"/><path clip-path="url(#al)" fill="#413D3E" d="M34 25.6c0 3.6-2.9 6.5-6.5 6.5S21 29.2 21 25.6s2.9-6.5 6.5-6.5S34 22 34 25.6z"/><path clip-path="url(#al)" fill="#423E3F" d="M34 25.6c0 3.6-2.9 6.4-6.4 6.4s-6.4-2.9-6.4-6.4 2.9-6.4 6.4-6.4 6.4 2.9 6.4 6.4z"/><circle clip-path="url(#al)" fill="#433F40" cx="27.5" cy="25.6" r="6.4"/><path clip-path="url(#al)" fill="#444041" d="M33.9 25.6c0 3.5-2.9 6.4-6.4 6.4-3.5 0-6.4-2.9-6.4-6.4 0-3.5 2.9-6.4 6.4-6.4 3.5 0 6.4 2.9 6.4 6.4z"/><path clip-path="url(#al)" fill="#454142" d="M33.9 25.6c0 3.5-2.8 6.3-6.3 6.3s-6.3-2.8-6.3-6.3 2.8-6.3 6.3-6.3 6.3 2.8 6.3 6.3z"/><path clip-path="url(#al)" fill="#464243" d="M33.8 25.6c0 3.5-2.8 6.3-6.3 6.3s-6.3-2.8-6.3-6.3 2.8-6.3 6.3-6.3 6.3 2.8 6.3 6.3z"/><circle clip-path="url(#al)" fill="#474344" cx="27.5" cy="25.6" r="6.3"/><path clip-path="url(#al)" fill="#484445" d="M33.8 25.6c0 3.4-2.8 6.2-6.2 6.2-3.4 0-6.2-2.8-6.2-6.2 0-3.4 2.8-6.2 6.2-6.2 3.4 0 6.2 2.8 6.2 6.2z"/><circle clip-path="url(#al)" fill="#484546" cx="27.5" cy="25.6" r="6.2"/><path clip-path="url(#al)" fill="#494647" d="M33.7 25.6c0 3.4-2.8 6.2-6.2 6.2-3.4 0-6.2-2.8-6.2-6.2 0-3.4 2.8-6.2 6.2-6.2 3.4 0 6.2 2.8 6.2 6.2z"/><circle clip-path="url(#al)" fill="#4A4748" cx="27.5" cy="25.6" r="6.1"/><path clip-path="url(#al)" fill="#4B4849" d="M33.6 25.6c0 3.4-2.7 6.1-6.1 6.1-3.4 0-6.1-2.7-6.1-6.1s2.7-6.1 6.1-6.1c3.4 0 6.1 2.7 6.1 6.1z"/><path clip-path="url(#al)" fill="#4C494A" d="M33.6 25.6c0 3.4-2.7 6.1-6.1 6.1s-6.1-2.7-6.1-6.1c0-3.4 2.7-6.1 6.1-6.1s6.1 2.8 6.1 6.1z"/><path clip-path="url(#al)" fill="#4D4A4B" d="M33.6 25.6c0 3.3-2.7 6-6 6s-6-2.7-6-6 2.7-6 6-6 6 2.7 6 6z"/><circle clip-path="url(#al)" fill="#4E4B4C" cx="27.5" cy="25.6" r="6"/><circle clip-path="url(#al)" fill="#4F4C4D" cx="27.5" cy="25.6" r="6"/><path clip-path="url(#al)" fill="#504D4E" d="M33.5 25.6c0 3.3-2.7 5.9-5.9 5.9-3.3 0-5.9-2.7-5.9-5.9s2.7-5.9 5.9-5.9 5.9 2.6 5.9 5.9z"/><path clip-path="url(#al)" fill="#514E4F" d="M33.4 25.6c0 3.3-2.6 5.9-5.9 5.9-3.3 0-5.9-2.6-5.9-5.9 0-3.3 2.6-5.9 5.9-5.9 3.3 0 5.9 2.7 5.9 5.9z"/><path clip-path="url(#al)" fill="#524F50" d="M33.4 25.6c0 3.2-2.6 5.9-5.9 5.9s-5.9-2.6-5.9-5.9c0-3.2 2.6-5.9 5.9-5.9s5.9 2.7 5.9 5.9z"/><path clip-path="url(#al)" fill="#535051" d="M33.4 25.6c0 3.2-2.6 5.8-5.8 5.8-3.2 0-5.8-2.6-5.8-5.8s2.6-5.8 5.8-5.8c3.2 0 5.8 2.6 5.8 5.8z"/><path clip-path="url(#al)" fill="#545152" d="M33.3 25.6c0 3.2-2.6 5.8-5.8 5.8-3.2 0-5.8-2.6-5.8-5.8 0-3.2 2.6-5.8 5.8-5.8 3.2 0 5.8 2.6 5.8 5.8z"/><path clip-path="url(#al)" fill="#555253" d="M33.3 25.6c0 3.2-2.6 5.8-5.8 5.8-3.2 0-5.8-2.6-5.8-5.8 0-3.2 2.6-5.8 5.8-5.8 3.2 0 5.8 2.6 5.8 5.8z"/><path clip-path="url(#al)" fill="#565354" d="M33.3 25.6c0 3.2-2.6 5.7-5.7 5.7s-5.7-2.6-5.7-5.7 2.6-5.7 5.7-5.7 5.7 2.5 5.7 5.7z"/><circle clip-path="url(#al)" fill="#575455" cx="27.5" cy="25.6" r="5.7"/><circle clip-path="url(#al)" fill="#585556" cx="27.5" cy="25.6" r="5.7"/><circle clip-path="url(#al)" fill="#595657" cx="27.5" cy="25.6" r="5.6"/><path clip-path="url(#al)" fill="#5A5758" d="M33.1 25.6c0 3.1-2.5 5.6-5.6 5.6s-5.6-2.5-5.6-5.6 2.5-5.6 5.6-5.6 5.6 2.5 5.6 5.6z"/><path clip-path="url(#al)" fill="#5B5859" d="M33.1 25.6c0 3.1-2.5 5.6-5.6 5.6-3.1 0-5.6-2.5-5.6-5.6 0-3.1 2.5-5.6 5.6-5.6 3.1 0 5.6 2.5 5.6 5.6z"/><path clip-path="url(#al)" fill="#5C595A" d="M33.1 25.6c0 3.1-2.5 5.5-5.5 5.5-3.1 0-5.5-2.5-5.5-5.5s2.5-5.5 5.5-5.5 5.5 2.5 5.5 5.5z"/><circle clip-path="url(#al)" fill="#5D5A5B" cx="27.5" cy="25.6" r="5.5"/><path clip-path="url(#al)" fill="#5E5B5C" d="M33 25.6c0 3-2.4 5.5-5.5 5.5-3 0-5.5-2.4-5.5-5.5s2.4-5.5 5.5-5.5c3 0 5.5 2.5 5.5 5.5z"/><path clip-path="url(#al)" fill="#5F5C5D" d="M33 25.6c0 3-2.4 5.4-5.4 5.4-3 0-5.4-2.4-5.4-5.4 0-3 2.4-5.4 5.4-5.4 2.9 0 5.4 2.4 5.4 5.4z"/><path clip-path="url(#al)" fill="#605D5E" d="M32.9 25.6c0 3-2.4 5.4-5.4 5.4s-5.4-2.4-5.4-5.4c0-3 2.4-5.4 5.4-5.4s5.4 2.4 5.4 5.4z"/><path clip-path="url(#al)" fill="#615E5F" d="M32.9 25.6c0 3-2.4 5.4-5.4 5.4-3 0-5.4-2.4-5.4-5.4s2.4-5.4 5.4-5.4c3 0 5.4 2.4 5.4 5.4z"/><circle clip-path="url(#al)" fill="#625F60" cx="27.5" cy="25.6" r="5.3"/><path clip-path="url(#al)" fill="#636061" d="M32.8 25.6c0 2.9-2.4 5.3-5.3 5.3s-5.3-2.4-5.3-5.3 2.4-5.3 5.3-5.3c3 0 5.3 2.4 5.3 5.3z"/><circle clip-path="url(#al)" fill="#646162" cx="27.5" cy="25.6" r="5.3"/><path clip-path="url(#al)" fill="#656263" d="M32.8 25.6c0 2.9-2.3 5.2-5.2 5.2-2.9 0-5.2-2.3-5.2-5.2 0-2.9 2.3-5.2 5.2-5.2 2.8 0 5.2 2.3 5.2 5.2z"/><circle clip-path="url(#al)" fill="#666364" cx="27.5" cy="25.6" r="5.2"/><path clip-path="url(#al)" fill="#676465" d="M32.7 25.6c0 2.9-2.3 5.2-5.2 5.2-2.9 0-5.2-2.3-5.2-5.2s2.3-5.2 5.2-5.2c2.9 0 5.2 2.4 5.2 5.2z"/><circle clip-path="url(#al)" fill="#686566" cx="27.5" cy="25.6" r="5.1"/><path clip-path="url(#al)" fill="#696667" d="M32.6 25.6c0 2.8-2.3 5.1-5.1 5.1s-5.1-2.3-5.1-5.1 2.3-5.1 5.1-5.1 5.1 2.3 5.1 5.1z"/><path clip-path="url(#al)" fill="#6A6768" d="M32.6 25.6c0 2.8-2.3 5.1-5.1 5.1s-5.1-2.3-5.1-5.1 2.3-5.1 5.1-5.1 5.1 2.3 5.1 5.1z"/><circle clip-path="url(#al)" fill="#6B6869" cx="27.5" cy="25.6" r="5"/><path clip-path="url(#al)" fill="#6C696A" d="M32.5 25.6c0 2.8-2.2 5-5 5s-5-2.2-5-5 2.2-5 5-5 5 2.2 5 5z"/><circle clip-path="url(#al)" fill="#6D6A6B" cx="27.5" cy="25.6" r="5"/><path clip-path="url(#al)" fill="#6E6B6C" d="M32.5 25.6c0 2.7-2.2 4.9-4.9 4.9s-4.9-2.2-4.9-4.9 2.2-4.9 4.9-4.9 4.9 2.2 4.9 4.9z"/><path clip-path="url(#al)" fill="#6F6C6D" d="M32.4 25.6c0 2.7-2.2 4.9-4.9 4.9s-4.9-2.2-4.9-4.9 2.2-4.9 4.9-4.9 4.9 2.2 4.9 4.9z"/><path clip-path="url(#al)" fill="#706D6E" d="M32.4 25.6c0 2.7-2.2 4.9-4.9 4.9s-4.9-2.2-4.9-4.9 2.2-4.9 4.9-4.9 4.9 2.2 4.9 4.9z"/><path clip-path="url(#al)" fill="#716E6F" d="M32.4 25.6c0 2.7-2.2 4.8-4.8 4.8-2.7 0-4.8-2.2-4.8-4.8 0-2.7 2.2-4.8 4.8-4.8 2.6 0 4.8 2.1 4.8 4.8z"/><circle clip-path="url(#al)" fill="#726F70" cx="27.5" cy="25.6" r="4.8"/><path clip-path="url(#al)" fill="#737071" d="M32.3 25.6c0 2.6-2.1 4.8-4.8 4.8-2.6 0-4.8-2.1-4.8-4.8 0-2.6 2.1-4.8 4.8-4.8 2.7 0 4.8 2.2 4.8 4.8z"/><path clip-path="url(#al)" fill="#747172" d="M32.3 25.6c0 2.6-2.1 4.7-4.7 4.7s-4.7-2.1-4.7-4.7 2.1-4.7 4.7-4.7c2.5 0 4.7 2.1 4.7 4.7z"/><path clip-path="url(#al)" fill="#757273" d="M32.2 25.6c0 2.6-2.1 4.7-4.7 4.7s-4.7-2.1-4.7-4.7 2.1-4.7 4.7-4.7 4.7 2.1 4.7 4.7z"/><circle clip-path="url(#al)" fill="#767374" cx="27.5" cy="25.6" r="4.7"/><path clip-path="url(#al)" fill="#777475" d="M32.2 25.6c0 2.6-2.1 4.6-4.6 4.6-2.6 0-4.6-2.1-4.6-4.6 0-2.6 2.1-4.6 4.6-4.6 2.5 0 4.6 2.1 4.6 4.6z"/><circle clip-path="url(#al)" fill="#787576" cx="27.5" cy="25.6" r="4.6"/><path clip-path="url(#al)" fill="#797677" d="M32.1 25.6c0 2.5-2 4.6-4.6 4.6s-4.6-2-4.6-4.6 2-4.6 4.6-4.6 4.6 2.1 4.6 4.6z"/><circle clip-path="url(#al)" fill="#7A7778" cx="27.5" cy="25.6" r="4.5"/><path clip-path="url(#al)" fill="#7B7879" d="M32 25.6c0 2.5-2 4.5-4.5 4.5s-4.5-2-4.5-4.5 2-4.5 4.5-4.5 4.5 2 4.5 4.5z"/><path clip-path="url(#al)" fill="#7C797A" d="M32 25.6c0 2.5-2 4.5-4.5 4.5s-4.5-2-4.5-4.5 2-4.5 4.5-4.5 4.5 2 4.5 4.5z"/><path clip-path="url(#al)" fill="#7D7A7B" d="M32 25.6c0 2.4-2 4.4-4.4 4.4-2.4 0-4.4-2-4.4-4.4s2-4.4 4.4-4.4c2.4 0 4.4 2 4.4 4.4z"/><path clip-path="url(#al)" fill="#7E7B7C" d="M31.9 25.6c0 2.4-2 4.4-4.4 4.4-2.4 0-4.4-2-4.4-4.4 0-2.4 2-4.4 4.4-4.4 2.5 0 4.4 2 4.4 4.4z"/><path clip-path="url(#al)" fill="#7F7C7D" d="M31.9 25.6c0 2.4-2 4.4-4.4 4.4-2.4 0-4.4-2-4.4-4.4 0-2.4 2-4.4 4.4-4.4 2.4 0 4.4 2 4.4 4.4z"/><circle clip-path="url(#al)" fill="#807D7E" cx="27.5" cy="25.6" r="4.3"/><path clip-path="url(#al)" fill="#817E7F" d="M31.8 25.6c0 2.4-1.9 4.3-4.3 4.3s-4.3-1.9-4.3-4.3 1.9-4.3 4.3-4.3 4.3 1.9 4.3 4.3z"/><circle clip-path="url(#al)" fill="#827F80" cx="27.5" cy="25.6" r="4.3"/><path clip-path="url(#al)" fill="#838081" d="M31.8 25.6c0 2.3-1.9 4.2-4.2 4.2-2.3 0-4.2-1.9-4.2-4.2s1.9-4.2 4.2-4.2c2.3 0 4.2 1.9 4.2 4.2z"/><path clip-path="url(#al)" fill="#848182" d="M31.7 25.6c0 2.3-1.9 4.2-4.2 4.2s-4.2-1.9-4.2-4.2 1.9-4.2 4.2-4.2 4.2 1.9 4.2 4.2z"/><path clip-path="url(#al)" fill="#858283" d="M31.7 25.6c0 2.3-1.9 4.2-4.2 4.2-2.3 0-4.2-1.9-4.2-4.2 0-2.3 1.9-4.2 4.2-4.2 2.3 0 4.2 1.9 4.2 4.2z"/><circle clip-path="url(#al)" fill="#868384" cx="27.5" cy="25.6" r="4.1"/><circle clip-path="url(#al)" fill="#878485" cx="27.5" cy="25.6" r="4.1"/><path clip-path="url(#al)" fill="#888586" d="M31.6 25.6c0 2.2-1.8 4.1-4.1 4.1-2.2 0-4.1-1.8-4.1-4.1s1.8-4.1 4.1-4.1 4.1 1.9 4.1 4.1z"/><circle clip-path="url(#al)" fill="#898687" cx="27.5" cy="25.6" r="4"/><path clip-path="url(#al)" fill="#8A8788" d="M31.5 25.6c0 2.2-1.8 4-4 4s-4-1.8-4-4 1.8-4 4-4 4 1.8 4 4z"/><path clip-path="url(#al)" fill="#8B8889" d="M31.5 25.6c0 2.2-1.8 4-4 4s-4-1.8-4-4 1.8-4 4-4 4 1.8 4 4z"/><path clip-path="url(#al)" fill="#8C898A" d="M31.5 25.6c0 2.2-1.8 3.9-3.9 3.9-2.2 0-3.9-1.8-3.9-3.9 0-2.2 1.8-3.9 3.9-3.9 2.1 0 3.9 1.7 3.9 3.9z"/><path clip-path="url(#al)" fill="#8D8A8B" d="M31.4 25.6c0 2.2-1.7 3.9-3.9 3.9s-3.9-1.7-3.9-3.9 1.7-3.9 3.9-3.9 3.9 1.8 3.9 3.9z"/><path clip-path="url(#al)" fill="#8E8B8C" d="M31.4 25.6c0 2.1-1.7 3.9-3.9 3.9s-3.9-1.7-3.9-3.9 1.7-3.9 3.9-3.9 3.9 1.8 3.9 3.9z"/><path clip-path="url(#al)" fill="#8F8C8D" d="M31.4 25.6c0 2.1-1.7 3.8-3.8 3.8-2.1 0-3.8-1.7-3.8-3.8 0-2.1 1.7-3.8 3.8-3.8 2 0 3.8 1.7 3.8 3.8z"/><circle clip-path="url(#al)" fill="#908D8E" cx="27.5" cy="25.6" r="3.8"/><circle clip-path="url(#al)" fill="#918E8F" cx="27.5" cy="25.6" r="3.8"/><circle clip-path="url(#al)" fill="#919090" cx="27.5" cy="25.6" r="3.7"/><path clip-path="url(#al)" fill="#929191" d="M31.2 25.6c0 2-1.7 3.7-3.7 3.7s-3.7-1.7-3.7-3.7 1.7-3.7 3.7-3.7c2.1 0 3.7 1.7 3.7 3.7z"/><path clip-path="url(#al)" fill="#939292" d="M31.2 25.6c0 2-1.6 3.7-3.7 3.7-2 0-3.7-1.6-3.7-3.7s1.6-3.7 3.7-3.7 3.7 1.7 3.7 3.7z"/><path clip-path="url(#al)" fill="#949393" d="M31.2 25.6c0 2-1.6 3.6-3.6 3.6S24 27.6 24 25.6s1.6-3.6 3.6-3.6 3.6 1.6 3.6 3.6z"/><path clip-path="url(#al)" fill="#959494" d="M31.1 25.6c0 2-1.6 3.6-3.6 3.6s-3.6-1.6-3.6-3.6 1.6-3.6 3.6-3.6 3.6 1.6 3.6 3.6z"/><path clip-path="url(#al)" fill="#969595" d="M31.1 25.6c0 2-1.6 3.6-3.6 3.6s-3.6-1.6-3.6-3.6 1.6-3.6 3.6-3.6 3.6 1.6 3.6 3.6z"/><path clip-path="url(#al)" fill="#979696" d="M31.1 25.6c0 2-1.6 3.5-3.5 3.5s-3.5-1.6-3.5-3.5 1.6-3.5 3.5-3.5 3.5 1.6 3.5 3.5z"/><path clip-path="url(#al)" fill="#989797" d="M31 25.6c0 1.9-1.6 3.5-3.5 3.5S24 27.5 24 25.6s1.6-3.5 3.5-3.5c2 0 3.5 1.6 3.5 3.5z"/><circle clip-path="url(#al)" fill="#999898" cx="27.5" cy="25.6" r="3.5"/><path clip-path="url(#al)" fill="#9A9999" d="M31 25.6c0 1.9-1.5 3.4-3.4 3.4s-3.4-1.5-3.4-3.4 1.5-3.4 3.4-3.4c1.8 0 3.4 1.5 3.4 3.4z"/><path clip-path="url(#al)" fill="#9B9A9A" d="M30.9 25.6c0 1.9-1.5 3.4-3.4 3.4s-3.4-1.5-3.4-3.4 1.5-3.4 3.4-3.4 3.4 1.5 3.4 3.4z"/><path clip-path="url(#al)" fill="#9C9B9B" d="M30.9 25.6c0 1.9-1.5 3.4-3.4 3.4s-3.4-1.5-3.4-3.4 1.5-3.4 3.4-3.4 3.4 1.6 3.4 3.4z"/><path clip-path="url(#al)" fill="#9D9C9C" d="M30.9 25.6c0 1.8-1.5 3.3-3.3 3.3-1.8 0-3.3-1.5-3.3-3.3 0-1.8 1.5-3.3 3.3-3.3 1.8 0 3.3 1.5 3.3 3.3z"/><path clip-path="url(#al)" fill="#9E9D9D" d="M30.8 25.6c0 1.8-1.5 3.3-3.3 3.3-1.8 0-3.3-1.5-3.3-3.3s1.5-3.3 3.3-3.3c1.8 0 3.3 1.5 3.3 3.3z"/><circle clip-path="url(#al)" fill="#9F9E9E" cx="27.5" cy="25.6" r="3.3"/><path clip-path="url(#al)" fill="#A09F9F" d="M30.8 25.6c0 1.8-1.4 3.2-3.2 3.2-1.8 0-3.2-1.4-3.2-3.2s1.4-3.2 3.2-3.2c1.7 0 3.2 1.4 3.2 3.2z"/><path clip-path="url(#al)" fill="#A1A0A0" d="M30.7 25.6c0 1.8-1.4 3.2-3.2 3.2-1.8 0-3.2-1.4-3.2-3.2s1.4-3.2 3.2-3.2c1.8 0 3.2 1.4 3.2 3.2z"/><circle clip-path="url(#al)" fill="#A2A1A1" cx="27.5" cy="25.6" r="3.2"/><path clip-path="url(#al)" fill="#A3A2A2" d="M30.7 25.6c0 1.7-1.4 3.1-3.1 3.1-1.7 0-3.1-1.4-3.1-3.1s1.4-3.1 3.1-3.1c1.7 0 3.1 1.4 3.1 3.1z"/><circle clip-path="url(#al)" fill="#A4A3A3" cx="27.5" cy="25.6" r="3.1"/><path clip-path="url(#al)" fill="#A5A4A4" d="M30.6 25.6c0 1.7-1.4 3.1-3.1 3.1-1.7 0-3.1-1.4-3.1-3.1 0-1.7 1.4-3.1 3.1-3.1 1.7 0 3.1 1.4 3.1 3.1z"/><path clip-path="url(#al)" fill="#A6A5A5" d="M30.6 25.6c0 1.7-1.4 3-3 3-1.7 0-3-1.4-3-3s1.4-3 3-3 3 1.3 3 3z"/><path clip-path="url(#al)" fill="#A7A6A6" d="M30.5 25.6c0 1.7-1.3 3-3 3s-3-1.3-3-3 1.3-3 3-3 3 1.4 3 3z"/><path clip-path="url(#al)" fill="#A8A7A7" d="M30.5 25.6c0 1.6-1.3 3-3 3-1.6 0-3-1.3-3-3 0-1.6 1.3-3 3-3s3 1.4 3 3z"/><path clip-path="url(#al)" fill="#A9A8A8" d="M30.5 25.6c0 1.6-1.3 2.9-2.9 2.9-1.6 0-2.9-1.3-2.9-2.9s1.3-2.9 2.9-2.9c1.5 0 2.9 1.3 2.9 2.9z"/><path clip-path="url(#al)" fill="#AAA9A9" d="M30.4 25.6c0 1.6-1.3 2.9-2.9 2.9-1.6 0-2.9-1.3-2.9-2.9 0-1.6 1.3-2.9 2.9-2.9 1.6 0 2.9 1.3 2.9 2.9z"/><path clip-path="url(#al)" fill="#ABAAAA" d="M30.4 25.6c0 1.6-1.3 2.9-2.9 2.9-1.6 0-2.9-1.3-2.9-2.9 0-1.6 1.3-2.9 2.9-2.9 1.6 0 2.9 1.3 2.9 2.9z"/><path clip-path="url(#al)" fill="#ACABAB" d="M30.4 25.6c0 1.6-1.3 2.8-2.8 2.8-1.6 0-2.8-1.3-2.8-2.8s1.3-2.8 2.8-2.8c1.5 0 2.8 1.2 2.8 2.8z"/><circle clip-path="url(#al)" fill="#ADACAC" cx="27.5" cy="25.6" r="2.8"/><path clip-path="url(#al)" fill="#AEADAD" d="M30.3 25.6c0 1.5-1.2 2.8-2.8 2.8-1.5 0-2.8-1.2-2.8-2.8s1.2-2.8 2.8-2.8c1.6 0 2.8 1.3 2.8 2.8z"/><circle clip-path="url(#al)" fill="#AFAEAE" cx="27.5" cy="25.6" r="2.7"/><path clip-path="url(#al)" fill="#B0AFAF" d="M30.2 25.6c0 1.5-1.2 2.7-2.7 2.7s-2.7-1.2-2.7-2.7 1.2-2.7 2.7-2.7 2.7 1.2 2.7 2.7z"/><path clip-path="url(#al)" fill="#B1B0B0" d="M30.2 25.6c0 1.5-1.2 2.7-2.7 2.7-1.5 0-2.7-1.2-2.7-2.7s1.2-2.7 2.7-2.7c1.5 0 2.7 1.2 2.7 2.7z"/><path clip-path="url(#al)" fill="#B2B1B1" d="M30.2 25.6c0 1.5-1.2 2.6-2.6 2.6-1.5 0-2.6-1.2-2.6-2.6 0-1.5 1.2-2.6 2.6-2.6 1.4 0 2.6 1.2 2.6 2.6z"/><path clip-path="url(#al)" fill="#B3B2B2" d="M30.1 25.6c0 1.4-1.2 2.6-2.6 2.6-1.4 0-2.6-1.2-2.6-2.6 0-1.4 1.2-2.6 2.6-2.6 1.5 0 2.6 1.2 2.6 2.6z"/><circle clip-path="url(#al)" fill="#B4B3B3" cx="27.5" cy="25.6" r="2.6"/><path clip-path="url(#al)" fill="#B5B4B4" d="M30.1 25.6c0 1.4-1.1 2.5-2.5 2.5s-2.5-1.1-2.5-2.5 1.1-2.5 2.5-2.5c1.3 0 2.5 1.1 2.5 2.5z"/><path clip-path="url(#al)" fill="#B6B5B5" d="M30 25.6c0 1.4-1.1 2.5-2.5 2.5S25 27 25 25.6s1.1-2.5 2.5-2.5 2.5 1.1 2.5 2.5z"/><path clip-path="url(#al)" fill="#B7B6B6" d="M30 25.6c0 1.4-1.1 2.5-2.5 2.5S25 27 25 25.6s1.1-2.5 2.5-2.5 2.5 1.1 2.5 2.5z"/><path clip-path="url(#al)" fill="#B8B7B7" d="M30 25.6c0 1.3-1.1 2.4-2.4 2.4-1.3 0-2.4-1.1-2.4-2.4 0-1.3 1.1-2.4 2.4-2.4 1.3 0 2.4 1.1 2.4 2.4z"/><circle clip-path="url(#al)" fill="#B9B8B8" cx="27.5" cy="25.6" r="2.4"/><circle clip-path="url(#al)" fill="#BAB9B9" cx="27.5" cy="25.6" r="2.4"/><path clip-path="url(#al)" fill="#BBBABA" d="M29.9 25.6c0 1.3-1 2.3-2.3 2.3s-2.3-1-2.3-2.3 1-2.3 2.3-2.3 2.3 1 2.3 2.3z"/><circle clip-path="url(#al)" fill="#BCBBBB" cx="27.5" cy="25.6" r="2.3"/><path clip-path="url(#al)" fill="#BDBCBC" d="M29.8 25.6c0 1.3-1 2.3-2.3 2.3-1.2 0-2.3-1-2.3-2.3 0-1.2 1-2.3 2.3-2.3 1.3 0 2.3 1.1 2.3 2.3z"/><circle clip-path="url(#al)" fill="#BEBDBD" cx="27.5" cy="25.6" r="2.2"/><path clip-path="url(#al)" fill="#BFBEBE" d="M29.7 25.6c0 1.2-1 2.2-2.2 2.2-1.2 0-2.2-1-2.2-2.2s1-2.2 2.2-2.2c1.2 0 2.2 1 2.2 2.2z"/><path clip-path="url(#al)" fill="#C0BFBF" d="M29.7 25.6c0 1.2-1 2.2-2.2 2.2-1.2 0-2.2-1-2.2-2.2 0-1.2 1-2.2 2.2-2.2 1.2 0 2.2 1 2.2 2.2z"/><path clip-path="url(#al)" fill="#C1C0C0" d="M29.7 25.6c0 1.2-1 2.1-2.1 2.1-1.2 0-2.1-1-2.1-2.1 0-1.2 1-2.1 2.1-2.1s2.1.9 2.1 2.1z"/><circle clip-path="url(#al)" fill="#C2C1C1" cx="27.5" cy="25.6" r="2.1"/><path clip-path="url(#al)" fill="#C3C2C2" d="M29.6 25.6c0 1.1-.9 2.1-2.1 2.1-1.1 0-2.1-.9-2.1-2.1 0-1.1.9-2.1 2.1-2.1 1.2 0 2.1 1 2.1 2.1z"/><path clip-path="url(#al)" fill="#C4C3C3" d="M29.6 25.6c0 1.1-.9 2-2 2s-2-.9-2-2 .9-2 2-2c1 0 2 .9 2 2z"/><path clip-path="url(#al)" fill="#C5C4C4" d="M29.5 25.6c0 1.1-.9 2-2 2s-2-.9-2-2 .9-2 2-2 2 .9 2 2z"/><path clip-path="url(#al)" fill="#C6C5C5" d="M29.5 25.6c0 1.1-.9 2-2 2s-2-.9-2-2 .9-2 2-2 2 .9 2 2z"/><circle clip-path="url(#al)" fill="#C7C6C6" cx="27.5" cy="25.6" r="1.9"/><circle clip-path="url(#al)" fill="#C8C7C7" cx="27.5" cy="25.6" r="1.9"/><circle clip-path="url(#al)" fill="#C9C8C8" cx="27.5" cy="25.6" r="1.9"/><path clip-path="url(#al)" fill="#CAC9C9" d="M29.4 25.6c0 1-.8 1.8-1.8 1.8s-1.8-.8-1.8-1.8.8-1.8 1.8-1.8c.9 0 1.8.8 1.8 1.8z"/><circle clip-path="url(#al)" fill="#CBCACA" cx="27.5" cy="25.6" r="1.8"/><path clip-path="url(#al)" fill="#CCCBCB" d="M29.3 25.6c0 1-.8 1.8-1.8 1.8s-1.8-.8-1.8-1.8.8-1.8 1.8-1.8 1.8.8 1.8 1.8z"/><path clip-path="url(#al)" fill="#CDCCCC" d="M29.3 25.6c0 1-.8 1.7-1.7 1.7-1 0-1.7-.8-1.7-1.7s.8-1.7 1.7-1.7c.9 0 1.7.8 1.7 1.7z"/><path clip-path="url(#al)" fill="#CECDCD" d="M29.2 25.6c0 .9-.8 1.7-1.7 1.7-.9 0-1.7-.8-1.7-1.7 0-.9.8-1.7 1.7-1.7 1 0 1.7.8 1.7 1.7z"/><path clip-path="url(#al)" fill="#CFCECE" d="M29.2 25.6c0 .9-.7 1.7-1.7 1.7-.9 0-1.7-.7-1.7-1.7 0-.9.7-1.7 1.7-1.7.9 0 1.7.8 1.7 1.7z"/><path clip-path="url(#al)" fill="#D0CFCF" d="M29.2 25.6c0 .9-.7 1.6-1.6 1.6s-1.6-.7-1.6-1.6.7-1.6 1.6-1.6 1.6.7 1.6 1.6z"/><path clip-path="url(#al)" fill="#D1D0D0" d="M29.1 25.6c0 .9-.7 1.6-1.6 1.6-.9 0-1.6-.7-1.6-1.6 0-.9.7-1.6 1.6-1.6.9 0 1.6.7 1.6 1.6z"/><path clip-path="url(#al)" fill="#D2D1D1" d="M29.1 25.6c0 .9-.7 1.6-1.6 1.6-.9 0-1.6-.7-1.6-1.6 0-.9.7-1.6 1.6-1.6.9 0 1.6.7 1.6 1.6z"/><path clip-path="url(#al)" fill="#D3D2D2" d="M29.1 25.6c0 .8-.7 1.5-1.5 1.5s-1.5-.7-1.5-1.5.7-1.5 1.5-1.5 1.5.7 1.5 1.5z"/><circle clip-path="url(#al)" fill="#D4D3D3" cx="27.5" cy="25.6" r="1.5"/><path clip-path="url(#al)" fill="#D5D4D4" d="M29 25.6c0 .8-.7 1.5-1.5 1.5s-1.5-.7-1.5-1.5.7-1.5 1.5-1.5 1.5.7 1.5 1.5z"/><path clip-path="url(#al)" fill="#D6D5D5" d="M29 25.6c0 .8-.6 1.4-1.4 1.4-.8 0-1.4-.6-1.4-1.4s.6-1.4 1.4-1.4c.7 0 1.4.6 1.4 1.4z"/><path clip-path="url(#al)" fill="#D7D6D6" d="M28.9 25.6c0 .8-.6 1.4-1.4 1.4s-1.4-.6-1.4-1.4.6-1.4 1.4-1.4 1.4.6 1.4 1.4z"/><circle clip-path="url(#al)" fill="#D8D7D7" cx="27.5" cy="25.6" r="1.4"/><path clip-path="url(#al)" fill="#D9D8D8" d="M28.9 25.6c0 .7-.6 1.3-1.3 1.3-.7 0-1.3-.6-1.3-1.3 0-.7.6-1.3 1.3-1.3.7 0 1.3.6 1.3 1.3z"/><circle clip-path="url(#al)" fill="#DAD9D9" cx="27.5" cy="25.6" r="1.3"/><path clip-path="url(#al)" fill="#DADADA" d="M28.8 25.6c0 .7-.6 1.3-1.3 1.3-.7 0-1.3-.6-1.3-1.3s.6-1.3 1.3-1.3c.7 0 1.3.6 1.3 1.3z"/><circle clip-path="url(#al)" fill="#DBDBDB" cx="27.5" cy="25.6" r="1.2"/><path clip-path="url(#al)" fill="#DCDCDC" d="M28.7 25.6c0 .7-.5 1.2-1.2 1.2s-1.2-.5-1.2-1.2.5-1.2 1.2-1.2 1.2.6 1.2 1.2z"/><circle clip-path="url(#al)" fill="#DDD" cx="27.5" cy="25.6" r="1.2"/><path clip-path="url(#al)" fill="#DEDEDE" d="M28.7 25.6c0 .6-.5 1.1-1.1 1.1-.6 0-1.1-.5-1.1-1.1 0-.6.5-1.1 1.1-1.1.6 0 1.1.5 1.1 1.1z"/><path clip-path="url(#al)" fill="#DFDFDF" d="M28.6 25.6c0 .6-.5 1.1-1.1 1.1-.6 0-1.1-.5-1.1-1.1 0-.6.5-1.1 1.1-1.1.6 0 1.1.5 1.1 1.1z"/><path clip-path="url(#al)" fill="#E0E0E0" d="M28.6 25.6c0 .6-.5 1.1-1.1 1.1-.6 0-1.1-.5-1.1-1.1s.5-1.1 1.1-1.1c.6 0 1.1.5 1.1 1.1z"/><circle clip-path="url(#al)" fill="#E1E1E1" cx="27.5" cy="25.6" r="1"/><circle clip-path="url(#al)" fill="#E2E2E2" cx="27.5" cy="25.6" r="1"/><path clip-path="url(#al)" fill="#E3E3E3" d="M28.5 25.6c0 .5-.4 1-1 1-.5 0-1-.4-1-1s.4-1 1-1 1 .5 1 1z"/><circle clip-path="url(#al)" fill="#E4E4E4" cx="27.5" cy="25.6" r=".9"/><path clip-path="url(#al)" fill="#E5E5E5" d="M28.4 25.6c0 .5-.4.9-.9.9s-.9-.4-.9-.9.4-.9.9-.9.9.4.9.9z"/><circle clip-path="url(#al)" fill="#E6E6E6" cx="27.5" cy="25.6" r=".9"/><path clip-path="url(#al)" fill="#E7E7E7" d="M28.4 25.6c0 .5-.4.8-.8.8s-.8-.4-.8-.8.4-.8.8-.8.8.4.8.8z"/><path clip-path="url(#al)" fill="#E8E8E8" d="M28.3 25.6c0 .4-.4.8-.8.8s-.8-.4-.8-.8.4-.8.8-.8c.5 0 .8.4.8.8z"/><path clip-path="url(#al)" fill="#E9E9E9" d="M28.3 25.6c0 .4-.3.8-.8.8-.4 0-.8-.3-.8-.8 0-.4.3-.8.8-.8s.8.4.8.8z"/><path clip-path="url(#al)" fill="#EAEAEA" d="M28.3 25.6c0 .4-.3.7-.7.7-.4 0-.7-.3-.7-.7 0-.4.3-.7.7-.7.3 0 .7.3.7.7z"/><circle clip-path="url(#al)" fill="#EBEBEB" cx="27.5" cy="25.6" r=".7"/><path clip-path="url(#al)" fill="#ECECEC" d="M28.2 25.6c0 .4-.3.7-.7.7-.4 0-.7-.3-.7-.7 0-.4.3-.7.7-.7.4 0 .7.3.7.7z"/><path clip-path="url(#al)" fill="#EDEDED" d="M28.2 25.6c0 .4-.3.6-.6.6s-.6-.3-.6-.6.3-.6.6-.6.6.3.6.6z"/><path clip-path="url(#al)" fill="#EEE" d="M28.1 25.6c0 .3-.3.6-.6.6s-.6-.3-.6-.6.3-.6.6-.6c.4 0 .6.3.6.6z"/><path clip-path="url(#al)" fill="#EFEFEF" d="M28.1 25.6c0 .3-.3.6-.6.6s-.5-.3-.5-.6.3-.6.6-.6.5.3.5.6z"/><path clip-path="url(#al)" fill="#F0F0F0" d="M28.1 25.6c0 .3-.2.5-.5.5s-.5-.2-.5-.5.2-.5.5-.5c.2 0 .5.2.5.5z"/><circle clip-path="url(#al)" fill="#F1F1F1" cx="27.5" cy="25.6" r=".5"/><path clip-path="url(#al)" fill="#F2F2F2" d="M28 25.6c0 .3-.2.5-.5.5s-.5-.2-.5-.5.2-.5.5-.5.5.3.5.5z"/><circle clip-path="url(#al)" fill="#F3F3F3" cx="27.5" cy="25.6" r=".4"/><path clip-path="url(#al)" fill="#F4F4F4" d="M27.9 25.6c0 .2-.2.4-.4.4s-.4-.2-.4-.4.2-.4.4-.4.4.2.4.4z"/><path clip-path="url(#al)" fill="#F5F5F5" d="M27.9 25.6c0 .2-.2.4-.4.4s-.4-.2-.4-.4.2-.4.4-.4.4.2.4.4z"/><path clip-path="url(#al)" fill="#F6F6F6" d="M27.9 25.6c0 .2-.1.3-.3.3-.2 0-.3-.1-.3-.3s.1-.3.3-.3c.1 0 .3.1.3.3z"/><path clip-path="url(#al)" fill="#F7F7F7" d="M27.8 25.6c0 .2-.1.3-.3.3-.2 0-.3-.1-.3-.3 0-.2.1-.3.3-.3.2 0 .3.1.3.3z"/><path clip-path="url(#al)" fill="#F8F8F8" d="M27.8 25.6c0 .1-.1.3-.3.3-.1 0-.3-.1-.3-.3 0-.1.1-.3.3-.3.2 0 .3.2.3.3z"/><path clip-path="url(#al)" fill="#F9F9F9" d="M27.8 25.6c0 .1-.1.2-.2.2s-.2-.1-.2-.2.1-.2.2-.2.2.1.2.2z"/><path clip-path="url(#al)" fill="#FAFAFA" d="M27.7 25.6c0 .1-.1.2-.2.2s-.2-.1-.2-.2.1-.2.2-.2.2.1.2.2z"/><path clip-path="url(#al)" fill="#FBFBFB" d="M27.7 25.6c0 .1-.1.2-.2.2s-.2-.1-.2-.2.1-.2.2-.2.2.1.2.2z"/><path clip-path="url(#al)" fill="#FCFCFC" d="M27.7 25.6c0 .1-.1.1-.1.1-.1 0-.1-.1-.1-.1l.1-.1s.1 0 .1.1z"/><path clip-path="url(#al)" fill="#FDFDFD" d="M27.6 25.6c0 .1 0 .1-.1.1s-.1 0-.1-.1 0-.1.1-.1.1.1.1.1z"/><circle clip-path="url(#al)" fill="#FEFEFE" cx="27.5" cy="25.6" r=".1"/><path clip-path="url(#al)" fill="#FFF" d="M27.6 25.6s-.1 0 0 0c-.1 0-.1 0 0 0-.1 0-.1 0 0 0-.1 0 0 0 0 0z"/></g><defs><filter id="am" filterUnits="userSpaceOnUse" x="21.3" y="18.8" width="12.8" height="12.8"><feColorMatrix values="1 0 0 0 0 0 1 0 0 0 0 0 1 0 0 0 0 0 1 0"/></filter></defs><mask maskUnits="userSpaceOnUse" x="21.3" y="18.8" width="12.8" height="12.8" id="an"><path fill="#FFF" d="M20.2 17.6h18.1v16.2H20.2z" filter="url(#am)"/></mask><g mask="url(#an)"><circle fill="#F47B20" cx="27.7" cy="25.2" r="6.4"/></g><defs><filter id="ao" filterUnits="userSpaceOnUse" x="20.8" y="18.3" width="13.8" height="13.8"><feColorMatrix values="1 0 0 0 0 0 1 0 0 0 0 0 1 0 0 0 0 0 1 0"/></filter></defs><mask maskUnits="userSpaceOnUse" x="20.8" y="18.3" width="13.8" height="13.8" id="ap"><path fill="#FFF" d="M19.7 18.2H35v14.7H19.7z" filter="url(#ao)"/></mask><g mask="url(#ap)"><path fill="#FFF" d="M27.7 32.1c-3.8 0-6.9-3.1-6.9-6.9 0-3.8 3.1-6.9 6.9-6.9 3.8 0 6.9 3.1 6.9 6.9 0 3.8-3.1 6.9-6.9 6.9zm0-12.8c-3.2 0-5.9 2.6-5.9 5.9 0 3.2 2.6 5.9 5.9 5.9 3.2 0 5.9-2.6 5.9-5.9 0-3.2-2.7-5.9-5.9-5.9z"/></g><defs><filter id="aq" filterUnits="userSpaceOnUse" x="21.8" y="19.7" width="11.9" height="10"><feColorMatrix values="1 0 0 0 0 0 1 0 0 0 0 0 1 0 0 0 0 0 1 0"/></filter></defs><mask maskUnits="userSpaceOnUse" x="21.8" y="19.7" width="11.9" height="10" id="ar"><path fill="#FFF" d="M21.2 17.6H37v14H21.2z" filter="url(#aq)"/></mask><g mask="url(#ar)"><path fill="#231F20" d="M29.2 29.8l-1.9-6.7-1.4 3.7h-4.1v-1.1h3.4l2.3-6 2 7.2.6-1.2h3.7v1.1h-3.1"/></g><g><path fill="#1F1F1F" d="M34.7 37.3H20.6l-7-12.2 7-12.2h14.1l7 12.2-7 12.2zm-13.8-.6h13.4L41 25.1l-6.7-11.6H20.9l-6.7 11.6 6.7 11.6z"/></g><g><path fill="#F47B20" d="M55.9 13.2l-2.3 8.6h-2.2L50 16.3c-.1-.3-.1-.6-.1-1 0 .4-.1.7-.2 1l-1.5 5.5H46l-2.3-8.6h2.1l1.2 5.7c.1.2.1.6.1 1 0-.3.1-.6.2-1l1.6-5.7H51l1.4 5.8c.1.2.1.5.1.9 0-.3.1-.6.1-1l1.2-5.8h2.1zM56.6 21.5v-1.9c.3.3.7.5 1.1.7.4.1.8.2 1.2.2.2 0 .5 0 .6-.1.2 0 .3-.1.5-.2l.3-.3c.1-.1.1-.2.1-.3 0-.2 0-.3-.1-.5-.1-.1-.2-.3-.4-.4l-.6-.3c-.2-.1-.5-.2-.7-.3-.7-.3-1.2-.6-1.5-1-.3-.4-.5-.9-.5-1.5 0-.4.1-.8.3-1.2s.4-.6.7-.8c.3-.2.7-.4 1.1-.5.4-.1.8-.1 1.3-.1.4 0 .8 0 1.2.1.3.1.7.1 1 .2v1.8c-.1-.1-.3-.2-.5-.3-.2-.1-.3-.1-.5-.2s-.4-.1-.5-.1h-.5c-.2 0-.4 0-.6.1-.2 0-.3.1-.5.2l-.3.3c-.1.1-.1.2-.1.4 0 .1 0 .3.1.4l.3.3c.1.1.3.2.5.3.2.1.4.2.7.3.3.1.7.3.9.5.3.2.5.3.7.6s.3.4.5.7.2.6.2.9c0 .5-.1.9-.3 1.2s-.4.6-.7.8c-.3.2-.7.3-1.1.4-.5 0-.9.1-1.4.1-.5 0-.9 0-1.3-.1-.5-.1-.8-.2-1.2-.4zM67.6 22c-1.2 0-2.2-.4-3-1.2-.8-.8-1.2-1.9-1.2-3.1 0-1.4.4-2.5 1.2-3.3.8-.8 1.8-1.3 3.1-1.3 1.2 0 2.2.4 3 1.2.8.8 1.1 1.9 1.1 3.2 0 1.4-.4 2.5-1.2 3.3-.7.8-1.7 1.2-3 1.2zm.1-7.3c-.7 0-1.2.3-1.6.8-.4.5-.6 1.2-.6 2 0 .9.2 1.5.6 2 .4.5.9.7 1.6.7.7 0 1.2-.2 1.6-.7.4-.5.6-1.2.6-2 0-.9-.2-1.6-.6-2.1-.4-.4-1-.7-1.6-.7zM75.1 20.2h3.5v1.6H73v-1.5l2.5-2.4c.5-.5.8-.9 1-1.2.2-.3.3-.7.3-1 0-.8-.4-1.2-1.3-1.2-.7 0-1.5.3-2.1.9v-1.7c.7-.5 1.6-.7 2.5-.7.9 0 1.6.2 2.1.7.5.4.7 1 .7 1.8 0 1-.6 2-1.8 3.1l-1.8 1.6z"/></g><g><path fill="#F47B20" d="M130.7 36.4v-2.7c.5.4 1 .7 1.6.9.6.2 1.1.3 1.7.3.3 0 .6 0 .9-.1.3-.1.5-.1.6-.3.2-.1.3-.2.4-.4.1-.1.1-.3.1-.5s-.1-.4-.2-.6-.3-.4-.6-.5c-.2-.2-.5-.3-.8-.5-.3-.1-.7-.3-1-.4-.9-.4-1.6-.9-2.1-1.4s-.7-1.2-.7-2.1c0-.6.1-1.2.4-1.6.3-.5.6-.8 1-1.1.4-.3.9-.5 1.5-.6.6-.1 1.2-.2 1.8-.2.6 0 1.2 0 1.7.1s.9.2 1.3.3v2.5c-.2-.1-.4-.3-.7-.4-.2-.1-.5-.2-.7-.3-.3-.1-.5-.1-.8-.2-.2 0-.5-.1-.7-.1-.3 0-.6 0-.8.1-.3.1-.5.1-.6.2-.2.1-.3.2-.4.4-.1.2-.1.3-.1.5s.1.4.2.5c.1.2.3.3.5.5.2.1.4.3.7.4.3.1.6.3 1 .4.5.2.9.4 1.3.6.4.2.7.5 1 .8.3.3.5.6.6 1 .1.4.2.8.2 1.3 0 .7-.1 1.2-.4 1.7-.3.5-.6.8-1 1.1s-.9.5-1.5.6c-.6.1-1.2.2-1.8.2-.7 0-1.3-.1-1.9-.2-.8.2-1.3.1-1.7-.2zM145.4 36.8c-.4.2-1 .3-1.8.3-1.9 0-2.8-1-2.8-2.9v-3.9h-1.4v-2h1.4v-1.9l2.7-.8v2.6h1.9v2h-1.9v3.5c0 .9.4 1.3 1.1 1.3.3 0 .6-.1.9-.2v2zM155.1 36.9h-2.7v-1.3c-.7 1-1.5 1.5-2.6 1.5-2 0-3-1.2-3-3.6v-5.2h2.7v5c0 1.2.5 1.8 1.4 1.8.5 0 .9-.2 1.1-.5.3-.3.4-.8.4-1.4v-4.9h2.7v8.6zM165.8 36.9h-2.7v-1.2c-.6.9-1.5 1.4-2.7 1.4-1.1 0-1.9-.4-2.6-1.1-.7-.8-1-1.8-1-3.2 0-1.4.4-2.6 1.1-3.4.7-.9 1.7-1.3 2.8-1.3 1.1 0 1.9.4 2.3 1.2v-5.1h2.7v12.7zm-2.6-4.2v-.6c0-.6-.2-1-.5-1.4-.3-.4-.7-.6-1.3-.6-.6 0-1 .2-1.4.7-.3.5-.5 1.1-.5 1.9 0 .8.2 1.3.5 1.8s.8.6 1.3.6 1-.2 1.3-.6c.4-.5.6-1.1.6-1.8zM169.3 26.9c-.4 0-.8-.1-1.1-.4-.3-.3-.4-.6-.4-1s.1-.7.4-1c.3-.3.7-.4 1.1-.4.5 0 .8.1 1.1.4s.4.6.4 1-.1.7-.4 1c-.3.3-.6.4-1.1.4zm1.3 7.1c0 .4.1.6.3.8.2.2.4.3.7.3h.4c.1 0 .3-.1.4-.1v1.9c-.3.1-.7.2-1 .2-.4.1-.7.1-1.1.1-.4 0-.7-.1-1-.2-.3-.1-.5-.3-.7-.5-.2-.2-.4-.5-.5-.8-.1-.3-.2-.7-.2-1.1v-6.3h2.6V34zM177.6 37.1c-1.4 0-2.6-.4-3.4-1.2-.8-.8-1.2-1.9-1.2-3.3s.4-2.5 1.3-3.3c.9-.8 2-1.2 3.5-1.2 1.4 0 2.6.4 3.4 1.2.8.8 1.2 1.9 1.2 3.2 0 1.4-.4 2.6-1.3 3.4-.8.8-2 1.2-3.5 1.2zm.1-7c-.6 0-1.1.2-1.5.6-.3.4-.5 1-.5 1.8 0 1.7.7 2.5 2 2.5s1.9-.9 1.9-2.5-.6-2.4-1.9-2.4z"/></g><g><path fill="#231F20" d="M45 36.9V24.8h4.3c4.3 0 6.4 2 6.4 5.9 0 1.9-.6 3.4-1.8 4.5-1.2 1.1-2.7 1.7-4.7 1.7H45zm2.8-9.8v7.6h1.3c1.2 0 2.1-.4 2.8-1.1.7-.7 1-1.7 1-2.9s-.3-2.1-1-2.7-1.6-1-2.8-1h-1.3zM65.2 33.4h-5.6c.1 1.3.9 1.9 2.4 1.9.9 0 1.8-.2 2.5-.7v1.9c-.8.4-1.8.6-3.1.6-1.4 0-2.5-.4-3.2-1.2-.8-.8-1.2-1.8-1.2-3.2 0-1.4.4-2.6 1.2-3.4.8-.8 1.9-1.3 3.1-1.3 1.3 0 2.2.4 2.9 1.1.7.7 1 1.8 1 3v1.3zm-2.4-1.7c0-1.2-.5-1.9-1.5-1.9-.4 0-.8.2-1.1.5-.3.4-.5.8-.6 1.3h3.2zM75 28.3l-3.2 8.6h-3l-3.1-8.6h2.8l1.5 5.3c.2.6.3 1.1.3 1.5 0-.4.1-.9.3-1.5l1.5-5.4H75zM83.7 33.4h-5.6c.1 1.3.9 1.9 2.4 1.9.9 0 1.8-.2 2.5-.7v1.9c-.8.4-1.8.6-3.1.6-1.4 0-2.5-.4-3.2-1.2s-1.2-1.8-1.2-3.2c0-1.4.4-2.6 1.2-3.4.8-.8 1.9-1.3 3.1-1.3 1.3 0 2.2.4 2.9 1.1s1 1.8 1 3v1.3zm-2.4-1.7c0-1.2-.5-1.9-1.5-1.9-.4 0-.8.2-1.1.5-.3.4-.5.8-.6 1.3h3.2zM87.9 34c0 .4.1.6.3.8.2.2.4.3.7.3h.4c.1 0 .3-.1.4-.1v1.9c-.3.1-.7.2-1 .2-.4.1-.7.1-1.1.1-.4 0-.7-.1-1-.2-.3-.1-.5-.3-.7-.5-.2-.2-.4-.5-.5-.8-.1-.3-.2-.7-.2-1.1V24.1h2.6V34zM94.9 37.1c-1.4 0-2.6-.4-3.4-1.2-.8-.8-1.2-1.9-1.2-3.3s.4-2.5 1.3-3.3c.9-.8 2-1.2 3.5-1.2 1.4 0 2.6.4 3.4 1.2.8.8 1.2 1.9 1.2 3.2 0 1.4-.4 2.6-1.3 3.4s-2 1.2-3.5 1.2zm.1-7c-.6 0-1.1.2-1.5.6-.3.4-.5 1-.5 1.8 0 1.7.7 2.5 2 2.5s1.9-.9 1.9-2.5-.6-2.4-1.9-2.4zM104.1 35.9v5h-2.7V28.3h2.7v1.3c.7-1 1.6-1.5 2.8-1.5 1.1 0 2 .4 2.6 1.1.6.8.9 1.8.9 3.1 0 1.4-.4 2.6-1.1 3.5-.7.9-1.7 1.3-2.8 1.3-1.1 0-1.9-.4-2.4-1.2zm-.1-3.5v.7c0 .6.2 1.1.5 1.5.3.4.7.6 1.2.6.6 0 1.1-.2 1.4-.7s.5-1.1.5-2c0-1.5-.6-2.3-1.8-2.3-.5 0-1 .2-1.3.6-.3.3-.5.9-.5 1.6zM119.8 33.4h-5.6c.1 1.3.9 1.9 2.4 1.9.9 0 1.8-.2 2.5-.7v1.9c-.8.4-1.8.6-3.1.6-1.4 0-2.5-.4-3.2-1.2s-1.2-1.8-1.2-3.2c0-1.4.4-2.6 1.2-3.4.8-.8 1.9-1.3 3.1-1.3 1.3 0 2.2.4 2.9 1.1.7.7 1 1.8 1 3v1.3zm-2.5-1.7c0-1.2-.5-1.9-1.5-1.9-.4 0-.8.2-1.1.5-.3.4-.5.8-.6 1.3h3.2zM127 30.7c-.3-.2-.7-.3-1.1-.3-.6 0-1 .2-1.4.6-.3.4-.5 1-.5 1.7v4.1h-2.7v-8.6h2.7v1.6c.4-1.2 1.2-1.8 2.3-1.8.3 0 .5 0 .7.1v2.6z"/></g></g></svg>