/* XPM */
static char *dummy[]={
"16 16 206 2",
".s c #000000",
".h c #00040a",
".j c #00060c",
".L c #00070d",
".0 c #010000",
"#D c #010101",
"#q c #020202",
".k c #040d13",
"#1 c #060606",
".g c #071016",
".D c #080605",
".f c #081117",
"#C c #090705",
"#P c #0a0a0a",
"bk c #0a1f2c",
"#c c #0b0b0b",
"#9 c #0c151c",
".l c #0e1e28",
"#E c #0f0f0f",
".i c #10191f",
"#T c #111111",
"#x c #121b21",
".e c #131c22",
"aB c #141d23",
"#0 c #151413",
"#8 c #161515",
"aA c #19242a",
"az c #1a252d",
"ag c #1b1a1a",
"#p c #1b2328",
"ay c #1b262e",
"ah c #1c1b1b",
"af c #1c1f20",
"ax c #1c2830",
"aQ c #1c303e",
"ai c #1d1c1c",
"aP c #1d3341",
"be c #1d3646",
"aw c #1e2c36",
"bj c #1e3340",
"bf c #1e3646",
"bd c #1e3749",
"a3 c #1e3b4e",
"aj c #1f1e1e",
"av c #1f3341",
"aO c #1f3645",
"bc c #1f394b",
"aM c #1f3c4f",
"a2 c #1f3e52",
"ak c #201f1f",
".1 c #202020",
"bb c #203b4d",
"al c #212121",
"aN c #21394a",
"ba c #213d4f",
"a9 c #213e51",
"b# c #213f52",
"a8 c #23455a",
"am c #242d33",
"aR c #243540",
"aT c #244358",
"a4 c #253f50",
"#O c #263641",
"aD c #27485e",
"an c #284b61",
".P c #2a3f4e",
"#7 c #2c4251",
"a0 c #2d4d63",
"aZ c #2d4f65",
"aU c #2e5168",
"aY c #2e516a",
"a7 c #2f414d",
"#l c #2f5772",
"aX c #30566e",
"Qt c #305a76",
"aC c #313d44",
"aW c #315871",
".r c #324e61",
".# c #325c77",
".c c #325d78",
"aK c #335b75",
".m c #335e7a",
".b c #345f7b",
".y c #35607d",
".a c #35617e",
"aE c #37607c",
"aS c #384650",
"ar c #396b8c",
"aJ c #3a637f",
"ae c #3b6886",
"#3 c #3c6b8b",
"#V c #3c6e8f",
"#M c #3c7193",
"aq c #3e7193",
"#Z c #3f6e8d",
"ad c #3f6f8f",
"a. c #405e73",
"#6 c #417394",
"## c #417ca4",
"#B c #426f8d",
"ac c #427495",
"as c #436f8c",
"ab c #44789b",
"#5 c #44799c",
"aa c #447b9f",
"#y c #45667d",
".d c #456a83",
"#K c #474848",
"#4 c #477da1",
"#Y c #477ea1",
"b. c #486171",
".n c #4981a6",
"#N c #4981a7",
"#X c #4a82a7",
".W c #4c555c",
"ao c #4c718a",
"#W c #4c86ac",
".X c #4c87ae",
".Z c #4d82a6",
"bl c #4f6370",
".M c #4f8bb3",
"#A c #4f8cb3",
".q c #508cb5",
".z c #5190b9",
"aF c #527e9b",
".p c #5290ba",
".o c #5495c0",
".S c #562c0c",
"#o c #5697c1",
"#2 c #597385",
".C c #599ac5",
".Y c #5a9fcc",
"aV c #5c7a8f",
"#a c #5c9dc7",
".O c #5ca3d3",
"bi c #5d6d77",
".N c #5da4d3",
".B c #5da5d4",
"#Q c #5f6163",
"a5 c #5f727f",
".A c #5fa9d9",
"a# c #65889f",
"#b c #667c8b",
"bh c #677882",
".t c #6a6b6c",
"ap c #6a91ab",
"#z c #6b96b2",
"#k c #6e7980",
"#. c #6f899a",
".E c #707172",
"#U c #708696",
"aI c #708da1",
"#L c #728a99",
"at c #738fa3",
"#S c #767a7c",
"bg c #778791",
"aH c #7f9aac",
"au c #808c94",
"#n c #81acc9",
"aL c #82909b",
".9 c #848f96",
".6 c #884512",
"aG c #88a2b4",
"a6 c #8d979e",
"#R c #8e9397",
"a1 c #8e9da7",
"#i c #8f4813",
".4 c #954b14",
"#h c #a05115",
"#e c #a45011",
".x c #a5a9ac",
"#m c #aac0ce",
".8 c #ad7850",
".H c #b05613",
"#f c #bd5f19",
".7 c #c5631a",
".T c #c8651a",
"#r c #cbced1",
".K c #d2d4d7",
"#v c #ea7014",
".3 c #ec751c",
"#d c #edd6c5",
"#F c #ede8e5",
"#u c #ef7920",
".G c #f47414",
".U c #f47a1e",
"#t c #f47b20",
"#s c #f48632",
"#H c #f58b3a",
"#g c #f67c20",
".J c #f79a54",
".u c #f7efe8",
".5 c #f87d21",
"#I c #f89e5a",
".I c #fc7a18",
"#G c #fcad73",
".R c #fd8021",
"#j c #ffb171",
".V c #ffc79c",
".F c #ffd0aa",
".2 c #ffd6b5",
".v c #ffe2c3",
".w c #ffeddc",
"#J c #fff0df",
"#w c #fff3e4",
".Q c #fff3ea",
"Qt.#.a.b.c.d.e.f.f.g.h.i.j.k.f.l",
".m.n.o.p.q.r.s.s.s.t.u.v.w.x.s.f",
".y.z.A.B.C.D.s.s.E.F.G.H.I.J.K.L",
".m.M.N.O.P.s.s.s.Q.G.R.S.T.U.V.W",
"Qt.X.Y.Z.0.s.s.1.2.3.4.5.6.7.8.9",
"#.###a#b.s.s.s#c#d#e#f#g#h#i#j#k",
"#l#m#n#o#p#q.s.s#r#s#t#t#u#v#w#x",
"#y#z.z#A#B#C#D.s#E#F#G#H#I#J#K.g",
"#L#M.M.X#N#O#P.s.s.s#Q#R#S#T.s.f",
"#U#V#W#X#Y#Z#0#1.s.s.s.s.s.s.s.f",
"#2#3.n#4#5#6#7#8.s.s.s.s.s.s.s#9",
"a.a#aaabacadaeafagahaiajakalalam",
"anaoapaqarasatauavawaxayazaAaBaC",
"aDaEaFaGaHaIaJaKaLaMaNaOaPaQaRaS",
"aTaUaEaVaWaXaYaZa0a1a2a3a4a5a6a7",
"a8a9b.b#babbbcbdbebfbgbhbibjbkbl"};
